<svg xmlns="http://www.w3.org/2000/svg" viewBox="0 0 384 340"><path fill="#f9f4da" d="M0 0h384v340H0z"/><g stroke="#7b5ea7" stroke-linejoin="round" stroke-width=".75"><g fill="#7b5ea7"><path d="M94.17 93.18V82.64c0-1.08-.37-2-1.1-2.73-.73-.73-1.56-1.1-2.49-1.1H82.2v14.37h-7.18V57.74h15.57c3.03 0 5.59 1.04 7.66 3.11 2.08 2.08 3.11 4.55 3.11 7.42 0 3.16-1.15 5.56-3.45 7.18 2.3 1.63 3.45 4.02 3.45 7.18v10.54h-7.18ZM82.2 72.11h8.38c.93 0 1.76-.37 2.49-1.1.73-.73 1.1-1.64 1.1-2.73s-.37-2-1.1-2.73c-.73-.73-1.56-1.1-2.49-1.1H82.2v7.66ZM130.09 93.18h-26.34V57.74h26.34v6.71h-19.16v7.66h14.37v6.71h-14.37v7.66h19.16v6.71ZM158.83 82.65c0 2.84-1.05 5.31-3.14 7.4-2.09 2.09-4.64 3.14-7.64 3.14h-15.57V57.74h15.57c3 0 5.55 1.05 7.64 3.14s3.14 4.56 3.14 7.4v14.37Zm-7.18 0V68.28c0-1.09-.37-2-1.1-2.73-.73-.73-1.56-1.1-2.49-1.1h-8.38v22.03h8.38c.93 0 1.76-.37 2.49-1.1.73-.73 1.1-1.64 1.1-2.73ZM187.57 82.65c0 2.87-1.05 5.35-3.14 7.42-2.09 2.08-4.64 3.11-7.64 3.11H172c-3 0-5.55-1.04-7.64-3.11-2.09-2.08-3.14-4.55-3.14-7.42V57.74h7.18v24.91c0 1.09.37 2 1.1 2.73.73.74 1.56 1.1 2.49 1.1h4.79c.93 0 1.76-.37 2.49-1.1.73-.73 1.1-1.64 1.1-2.73V57.74h7.18v24.91ZM216.31 93.18h-7.18v-6.9l-5.99-5.99-5.99 5.99v6.9h-7.18v-9.39l8.33-8.33-8.33-8.33v-9.39h7.18v6.9l5.99 5.99 5.99-5.99v-6.9h7.18v9.39l-8.33 8.33 8.33 8.33v9.39ZM280.25 93.18h-26.34V57.74h26.34v6.71h-19.16v7.66h14.37v6.71h-14.37v7.66h19.16v6.71ZM308.98 68.47l-13.17 24.28-13.17-24.28V57.74h7.18v9.24l5.99 11.88 5.99-11.97v-9.15h7.18v10.73ZM248.37 60.88c-2.09-2.09-4.64-3.14-7.64-3.14h-15.57v9.39l7.18 7.18v-9.87h8.38c.93 0 1.76.37 2.49 1.1.73.74 1.1 1.64 1.1 2.73v14.37c0 1.09-.37 2-1.1 2.73s-1.56 1.1-2.49 1.1h-8.38V76.6l-7.18 7.18v9.39h15.57c3 0 5.55-1.05 7.64-3.14s3.14-4.56 3.14-7.4V68.26c0-2.84-1.05-5.31-3.14-7.4Z"/><circle cx="220.74" cy="75.46" r="3.13"/></g><g fill="#f9f4da"><path d="M333.46 93.18V82.64c0-1.08-.37-2-1.1-2.73-.73-.73-1.56-1.1-2.49-1.1h-8.38v14.37h-7.18V57.74h15.57c3.03 0 5.59 1.04 7.66 3.11 2.08 2.08 3.11 4.55 3.11 7.42 0 3.16-1.15 5.56-3.45 7.18 2.3 1.63 3.45 4.02 3.45 7.18v10.54h-7.18Zm-11.97-21.07h8.38c.93 0 1.76-.37 2.49-1.1.73-.73 1.1-1.64 1.1-2.73s-.37-2-1.1-2.73c-.73-.73-1.56-1.1-2.49-1.1h-8.38v7.66ZM369.38 93.18h-26.34V57.74h26.34v6.71h-19.16v7.66h14.37v6.71h-14.37v7.66h19.16v6.71ZM398.11 82.65c0 2.84-1.05 5.31-3.14 7.4-2.09 2.09-4.64 3.14-7.64 3.14h-15.57V57.74h15.57c3 0 5.55 1.05 7.64 3.14s3.14 4.56 3.14 7.4v14.37Zm-7.18 0V68.28c0-1.09-.37-2-1.1-2.73-.73-.73-1.56-1.1-2.49-1.1h-8.38v22.03h8.38c.93 0 1.76-.37 2.49-1.1.73-.73 1.1-1.64 1.1-2.73Z"/></g><g fill="#f9f4da"><path d="M40.97 93.18H14.62V57.74h26.34v6.71H21.81v7.66h14.37v6.71H21.81v7.66h19.16v6.71ZM69.7 68.47 56.53 92.75 43.36 68.47V57.74h7.18v9.24l5.99 11.88 5.99-11.97v-9.15h7.18v10.73ZM9.09 60.88C7 58.79 4.45 57.74 1.45 57.74h-15.56v9.39l7.18 7.18v-9.87h8.38c.93 0 1.76.37 2.49 1.1.73.74 1.1 1.64 1.1 2.73v14.37c0 1.09-.37 2-1.1 2.73s-1.56 1.1-2.49 1.1h-8.38V76.6l-7.18 7.18v9.39H1.45c3 0 5.55-1.05 7.64-3.14s3.14-4.56 3.14-7.4V68.26c0-2.84-1.05-5.31-3.14-7.4Z"/></g><g fill="#f9f4da"><path d="M94.17 51.85V41.31c0-1.08-.37-2-1.1-2.73-.73-.73-1.56-1.1-2.49-1.1H82.2v14.37h-7.18V16.41h15.57c3.03 0 5.59 1.04 7.66 3.11 2.08 2.08 3.11 4.55 3.11 7.42 0 3.16-1.15 5.56-3.45 7.18 2.3 1.63 3.45 4.02 3.45 7.18v10.54h-7.18ZM82.2 30.78h8.38c.93 0 1.76-.37 2.49-1.1.73-.73 1.1-1.64 1.1-2.73s-.37-2-1.1-2.73c-.73-.73-1.56-1.1-2.49-1.1H82.2v7.66ZM130.09 51.85h-26.34V16.41h26.34v6.71h-19.16v7.66h14.37v6.71h-14.37v7.66h19.16v6.71ZM158.83 41.31c0 2.84-1.05 5.31-3.14 7.4-2.09 2.09-4.64 3.14-7.64 3.14h-15.57V16.41h15.57c3 0 5.55 1.05 7.64 3.14s3.14 4.56 3.14 7.4v14.37Zm-7.18 0V26.94c0-1.09-.37-2-1.1-2.73-.73-.73-1.56-1.1-2.49-1.1h-8.38v22.03h8.38c.93 0 1.76-.37 2.49-1.1.73-.73 1.1-1.64 1.1-2.73ZM187.57 41.31c0 2.87-1.05 5.35-3.14 7.42-2.09 2.08-4.64 3.11-7.64 3.11H172c-3 0-5.55-1.04-7.64-3.11-2.09-2.08-3.14-4.55-3.14-7.42v-24.9h7.18v24.91c0 1.09.37 2 1.1 2.73.73.74 1.56 1.1 2.49 1.1h4.79c.93 0 1.76-.37 2.49-1.1.73-.73 1.1-1.64 1.1-2.73V16.41h7.18v24.91ZM216.31 51.85h-7.18v-6.9l-5.99-5.99-5.99 5.99v6.9h-7.18v-9.39l8.33-8.33-8.33-8.33v-9.39h7.18v6.9l5.99 5.99 5.99-5.99v-6.9h7.18v9.39l-8.33 8.33 8.33 8.33v9.39ZM280.25 51.85h-26.34V16.41h26.34v6.71h-19.16v7.66h14.37v6.71h-14.37v7.66h19.16v6.71ZM308.98 27.14l-13.17 24.28-13.17-24.28V16.41h7.18v9.24l5.99 11.88 5.99-11.97v-9.15h7.18v10.73ZM248.37 19.55c-2.09-2.09-4.64-3.14-7.64-3.14h-15.57v9.39l7.18 7.18v-9.87h8.38c.93 0 1.76.37 2.49 1.1.73.74 1.1 1.64 1.1 2.73v14.37c0 1.09-.37 2-1.1 2.73s-1.56 1.1-2.49 1.1h-8.38v-9.87l-7.18 7.18v9.39h15.57c3 0 5.55-1.05 7.64-3.14s3.14-4.56 3.14-7.4V26.93c0-2.84-1.05-5.31-3.14-7.4Z"/><circle cx="220.74" cy="34.13" r="3.13"/></g><g fill="#f9f4da"><path d="M333.46 51.85V41.31c0-1.08-.37-2-1.1-2.73-.73-.73-1.56-1.1-2.49-1.1h-8.38v14.37h-7.18V16.41h15.57c3.03 0 5.59 1.04 7.66 3.11 2.08 2.08 3.11 4.55 3.11 7.42 0 3.16-1.15 5.56-3.45 7.18 2.3 1.63 3.45 4.02 3.45 7.18v10.54h-7.18Zm-11.97-21.07h8.38c.93 0 1.76-.37 2.49-1.1.73-.73 1.1-1.64 1.1-2.73s-.37-2-1.1-2.73c-.73-.73-1.56-1.1-2.49-1.1h-8.38v7.66ZM369.38 51.85h-26.34V16.41h26.34v6.71h-19.16v7.66h14.37v6.71h-14.37v7.66h19.16v6.71ZM398.11 41.31c0 2.84-1.05 5.31-3.14 7.4-2.09 2.09-4.64 3.14-7.64 3.14h-15.57V16.41h15.57c3 0 5.55 1.05 7.64 3.14s3.14 4.56 3.14 7.4v14.37Zm-7.18 0V26.94c0-1.09-.37-2-1.1-2.73-.73-.73-1.56-1.1-2.49-1.1h-8.38v22.03h8.38c.93 0 1.76-.37 2.49-1.1.73-.73 1.1-1.64 1.1-2.73Z"/></g><g fill="#f9f4da"><path d="M40.97 51.85H14.62V16.41h26.34v6.71H21.81v7.66h14.37v6.71H21.81v7.66h19.16v6.71ZM69.7 27.14 56.53 51.42 43.36 27.14V16.41h7.18v9.24l5.99 11.88 5.99-11.97v-9.15h7.18v10.73ZM9.09 19.55C7 17.46 4.45 16.41 1.45 16.41h-15.56v9.39l7.18 7.18v-9.87h8.38c.93 0 1.76.37 2.49 1.1.73.74 1.1 1.64 1.1 2.73v14.37c0 1.09-.37 2-1.1 2.73s-1.56 1.1-2.49 1.1h-8.38v-9.87l-7.18 7.18v9.39H1.45c3 0 5.55-1.05 7.64-3.14s3.14-4.56 3.14-7.4V26.93c0-2.84-1.05-5.31-3.14-7.4Z"/></g><g fill="#f9f4da"><path d="M94.17 134.51v-10.54c0-1.08-.37-2-1.1-2.73-.73-.73-1.56-1.1-2.49-1.1H82.2v14.37h-7.18V99.07h15.57c3.03 0 5.59 1.04 7.66 3.11 2.08 2.08 3.11 4.55 3.11 7.42 0 3.16-1.15 5.56-3.45 7.18 2.3 1.63 3.45 4.02 3.45 7.18v10.54h-7.18ZM82.2 113.44h8.38c.93 0 1.76-.37 2.49-1.1.73-.73 1.1-1.64 1.1-2.73s-.37-2-1.1-2.73c-.73-.73-1.56-1.1-2.49-1.1H82.2v7.66ZM130.09 134.51h-26.34V99.07h26.34v6.71h-19.16v7.66h14.37v6.71h-14.37v7.66h19.16v6.71ZM158.83 123.98c0 2.84-1.05 5.31-3.14 7.4-2.09 2.09-4.64 3.14-7.64 3.14h-15.57V99.08h15.57c3 0 5.55 1.05 7.64 3.14s3.14 4.56 3.14 7.4v14.37Zm-7.18 0v-14.37c0-1.09-.37-2-1.1-2.73-.73-.73-1.56-1.1-2.49-1.1h-8.38v22.03h8.38c.93 0 1.76-.37 2.49-1.1.73-.73 1.1-1.64 1.1-2.73ZM187.57 123.98c0 2.87-1.05 5.35-3.14 7.42-2.09 2.08-4.64 3.11-7.64 3.11H172c-3 0-5.55-1.04-7.64-3.11-2.09-2.08-3.14-4.55-3.14-7.42V99.07h7.18v24.91c0 1.09.37 2 1.1 2.73.73.74 1.56 1.1 2.49 1.1h4.79c.93 0 1.76-.37 2.49-1.1.73-.73 1.1-1.64 1.1-2.73V99.07h7.18v24.91ZM216.31 134.51h-7.18v-6.9l-5.99-5.99-5.99 5.99v6.9h-7.18v-9.39l8.33-8.33-8.33-8.33v-9.39h7.18v6.9l5.99 5.99 5.99-5.99v-6.9h7.18v9.39l-8.33 8.33 8.33 8.33v9.39ZM280.25 134.51h-26.34V99.07h26.34v6.71h-19.16v7.66h14.37v6.71h-14.37v7.66h19.16v6.71ZM308.98 109.8l-13.17 24.28-13.17-24.28V99.07h7.18v9.24l5.99 11.88 5.99-11.97v-9.15h7.18v10.73ZM248.37 102.21c-2.09-2.09-4.64-3.14-7.64-3.14h-15.57v9.39l7.18 7.18v-9.87h8.38c.93 0 1.76.37 2.49 1.1.73.74 1.1 1.64 1.1 2.73v14.37c0 1.09-.37 2-1.1 2.73s-1.56 1.1-2.49 1.1h-8.38v-9.87l-7.18 7.18v9.39h15.57c3 0 5.55-1.05 7.64-3.14s3.14-4.56 3.14-7.4v-14.37c0-2.84-1.05-5.31-3.14-7.4Z"/><circle cx="220.74" cy="116.79" r="3.13"/></g><g fill="#f9f4da"><path d="M333.46 134.51v-10.54c0-1.08-.37-2-1.1-2.73-.73-.73-1.56-1.1-2.49-1.1h-8.38v14.37h-7.18V99.07h15.57c3.03 0 5.59 1.04 7.66 3.11 2.08 2.08 3.11 4.55 3.11 7.42 0 3.16-1.15 5.56-3.45 7.18 2.3 1.63 3.45 4.02 3.45 7.18v10.54h-7.18Zm-11.97-21.07h8.38c.93 0 1.76-.37 2.49-1.1.73-.73 1.1-1.64 1.1-2.73s-.37-2-1.1-2.73c-.73-.73-1.56-1.1-2.49-1.1h-8.38v7.66ZM369.38 134.51h-26.34V99.07h26.34v6.71h-19.16v7.66h14.37v6.71h-14.37v7.66h19.16v6.71ZM398.11 123.98c0 2.84-1.05 5.31-3.14 7.4-2.09 2.09-4.64 3.14-7.64 3.14h-15.57V99.08h15.57c3 0 5.55 1.05 7.64 3.14s3.14 4.56 3.14 7.4v14.37Zm-7.18 0v-14.37c0-1.09-.37-2-1.1-2.73-.73-.73-1.56-1.1-2.49-1.1h-8.38v22.03h8.38c.93 0 1.76-.37 2.49-1.1.73-.73 1.1-1.64 1.1-2.73Z"/></g><g fill="#f9f4da"><path d="M40.97 134.51H14.62V99.07h26.34v6.71H21.81v7.66h14.37v6.71H21.81v7.66h19.16v6.71ZM69.7 109.8l-13.17 24.28-13.17-24.28V99.07h7.18v9.24l5.99 11.88 5.99-11.97v-9.15h7.18v10.73ZM9.09 102.21c-2.09-2.09-4.64-3.14-7.64-3.14h-15.56v9.39l7.18 7.18v-9.87h8.38c.93 0 1.76.37 2.49 1.1.73.74 1.1 1.64 1.1 2.73v14.37c0 1.09-.37 2-1.1 2.73s-1.56 1.1-2.49 1.1h-8.38v-9.87l-7.18 7.18v9.39H1.45c3 0 5.55-1.05 7.64-3.14s3.14-4.56 3.14-7.4v-14.37c0-2.84-1.05-5.31-3.14-7.4Z"/></g></g><g fill="#7b5ea7"><path d="M85.62 188.65v4.89h-2.45v-7.95l4.6-9.17h3.06l4.57 9.17v7.95h-2.45v-4.89h-7.34Zm3.67-9.78-3.67 7.34h7.34l-3.67-7.34ZM124.75 193.54h-2.45v-5.65l-7.34-7.34v12.99h-2.45v-17.12h1.69l8.09 8.09v-8.09h2.45v17.12ZM139.42 193.54h-12.23v-17.12h12.23v2.45h-9.78v4.89h7.34v2.45h-7.34v4.89h9.78v2.45ZM154.09 193.54h-1.83l-4.28-4.28-4.28 4.28h-1.83v-17.12h2.45v12.84l2.45-2.45v-3.06h2.45v3.06l2.45 2.45v-12.84h2.45v17.12ZM183.44 188.65c0 1.34-.48 2.49-1.44 3.45s-2.11 1.44-3.45 1.44h-2.45c-1.34 0-2.49-.48-3.45-1.44s-1.44-2.11-1.44-3.45v-7.34c0-1.34.48-2.49 1.44-3.45s2.11-1.44 3.45-1.44h2.45c1.34 0 2.49.48 3.45 1.44s1.44 2.11 1.44 3.45h-2.45c0-.67-.24-1.24-.72-1.72s-1.06-.72-1.72-.72h-2.45c-.67 0-1.24.24-1.72.72s-.72 1.06-.72 1.72v7.34c0 .67.24 1.24.72 1.72s1.06.72 1.72.72h2.45c.67 0 1.24-.24 1.72-.72s.72-1.06.72-1.72h2.45ZM198.11 188.65c0 1.34-.48 2.49-1.44 3.45s-2.11 1.44-3.45 1.44h-2.45c-1.34 0-2.49-.48-3.45-1.44s-1.44-2.11-1.44-3.45v-7.34c0-1.34.48-2.49 1.44-3.45s2.11-1.44 3.45-1.44h2.45c1.34 0 2.49.48 3.45 1.44s1.44 2.11 1.44 3.45v7.34Zm-2.45 0v-7.34c0-.67-.24-1.24-.72-1.72s-1.06-.72-1.72-.72h-2.45c-.67 0-1.24.24-1.72.72s-.72 1.06-.72 1.72v7.34c0 .67.24 1.24.72 1.72s1.06.72 1.72.72h2.45c.67 0 1.24-.24 1.72-.72s.72-1.06.72-1.72ZM212.78 188.65c0 1.35-.48 2.51-1.44 3.46s-2.11 1.43-3.45 1.43h-2.45c-1.34 0-2.49-.48-3.45-1.43s-1.44-2.11-1.44-3.46v-12.23H203v12.23c0 .67.24 1.24.72 1.72s1.06.72 1.72.72h2.45c.67 0 1.24-.24 1.72-.72s.72-1.06.72-1.72v-12.23h2.45v12.23ZM225.01 193.54v-4.89c0-.67-.24-1.24-.72-1.72s-1.06-.72-1.72-.72h-4.89v7.34h-2.45v-17.12h7.34c1.35 0 2.51.48 3.46 1.43s1.43 2.11 1.43 3.46c0 1.47-.69 2.69-2.08 3.67 1.39.98 2.08 2.2 2.08 3.67v4.89h-2.45Zm-7.34-9.78h4.89c.67 0 1.24-.24 1.72-.72s.72-1.06.72-1.72-.24-1.24-.72-1.72-1.06-.72-1.72-.72h-4.89v4.89ZM242.13 188.65c0 1.34-.48 2.49-1.44 3.45s-2.11 1.44-3.45 1.44h-2.45c-1.34 0-2.49-.48-3.45-1.43s-1.44-2.11-1.44-3.46h2.45c0 .67.24 1.24.72 1.72s1.06.72 1.72.72h2.45c.67 0 1.24-.24 1.72-.72s.72-1.06.72-1.72-.24-1.24-.72-1.72-1.06-.72-1.72-.72h-2.45c-1.34 0-2.49-.48-3.45-1.44s-1.44-2.11-1.44-3.45.48-2.49 1.44-3.45 2.11-1.44 3.45-1.44h2.45c1.34 0 2.49.48 3.45 1.44s1.44 2.11 1.44 3.45h-2.45c0-.67-.24-1.24-.72-1.72s-1.06-.72-1.72-.72h-2.45c-.67 0-1.24.24-1.72.72s-.72 1.06-.72 1.72.24 1.24.72 1.72 1.06.72 1.72.72h2.45c1.34 0 2.49.48 3.45 1.44s1.44 2.11 1.44 3.45ZM256.8 193.54h-12.23v-17.12h12.23v2.45h-9.78v4.89h7.34v2.45h-7.34v4.89h9.78v2.45ZM286.15 181.32c0 1.47-.69 2.69-2.08 3.67 1.39.98 2.08 2.2 2.08 3.67 0 1.35-.48 2.51-1.43 3.46-.95.95-2.11 1.43-3.46 1.43h-7.34v-17.12h7.34c1.35 0 2.51.48 3.46 1.43s1.43 2.11 1.43 3.46Zm-9.78-2.45v4.89h4.89c.67 0 1.24-.24 1.72-.72s.72-1.06.72-1.72-.24-1.24-.72-1.72-1.06-.72-1.72-.72h-4.89Zm0 7.34v4.89h4.89c.67 0 1.24-.24 1.72-.72s.72-1.06.72-1.72-.24-1.24-.72-1.72-1.06-.72-1.72-.72h-4.89ZM300.82 183l-4.89 4.89v5.65h-2.45v-5.65l-4.89-4.89v-6.58h2.45v5.65l3.67 3.67 3.67-3.67v-5.65h2.45V183ZM51.38 228.76h-2.45v-12.84l-2.45 2.45v3.06h-2.45v-3.06l-2.45-2.45v12.84h-2.45v-17.12h1.83l4.28 4.28 4.28-4.28h1.83v17.12ZM56.27 223.87v4.89h-2.45v-7.95l4.6-9.17h3.06l4.57 9.17v7.95H63.6v-4.89h-7.34Zm3.67-9.78-3.67 7.34h7.34l-3.67-7.34ZM78.28 228.76v-4.89c0-.67-.24-1.24-.72-1.72s-1.06-.72-1.72-.72h-4.89v7.34H68.5v-17.12h7.34c1.35 0 2.51.48 3.46 1.43s1.43 2.11 1.43 3.46c0 1.47-.69 2.69-2.08 3.67 1.39.98 2.08 2.2 2.08 3.67v4.89h-2.45Zm-7.34-9.78h4.89c.67 0 1.24-.24 1.72-.72s.72-1.06.72-1.72-.24-1.24-.72-1.72-1.06-.72-1.72-.72h-4.89v4.89ZM95.4 228.76h-2.45l-7.34-7.34v7.34h-2.45v-17.12h2.45v7.34l7.34-7.34h2.45v.9l-7.65 7.65 7.65 7.63v.93ZM124.75 228.76h-12.23v-17.12h12.23v2.45h-9.78v4.89h7.34v2.45h-7.34v4.89h9.78v2.45ZM136.97 228.76v-4.89c0-.67-.24-1.24-.72-1.72s-1.06-.72-1.72-.72h-4.89v7.34h-2.45v-17.12h7.34c1.35 0 2.51.48 3.46 1.43s1.43 2.11 1.43 3.46c0 1.47-.69 2.69-2.08 3.67 1.39.98 2.08 2.2 2.08 3.67v4.89h-2.45Zm-7.34-9.78h4.89c.67 0 1.24-.24 1.72-.72s.72-1.06.72-1.72-.24-1.24-.72-1.72-1.06-.72-1.72-.72h-4.89v4.89ZM154.09 228.76h-12.23v-2.45h4.89v-12.23h-4.89v-2.45h12.23v2.45h-4.89v12.23h4.89v2.45ZM168.76 228.76h-2.45l-7.34-7.34v7.34h-2.45v-17.12h2.45v7.34l7.34-7.34h2.45v.9l-7.65 7.65 7.65 7.63v.93ZM183.44 223.87c0 1.34-.48 2.49-1.44 3.45s-2.11 1.44-3.45 1.44h-2.45c-1.34 0-2.49-.48-3.45-1.43s-1.44-2.11-1.44-3.46h2.45c0 .67.24 1.24.72 1.72s1.06.72 1.72.72h2.45c.67 0 1.24-.24 1.72-.72s.72-1.06.72-1.72-.24-1.24-.72-1.72-1.06-.72-1.72-.72h-2.45c-1.34 0-2.49-.48-3.45-1.44s-1.44-2.11-1.44-3.45.48-2.49 1.44-3.45 2.11-1.44 3.45-1.44h2.45c1.34 0 2.49.48 3.45 1.44s1.44 2.11 1.44 3.45h-2.45c0-.67-.24-1.24-.72-1.72s-1.06-.72-1.72-.72h-2.45c-.67 0-1.24.24-1.72.72s-.72 1.06-.72 1.72.24 1.24.72 1.72 1.06.72 1.72.72h2.45c1.34 0 2.49.48 3.45 1.44s1.44 2.11 1.44 3.45ZM198.11 223.87c0 1.34-.48 2.49-1.44 3.45s-2.11 1.44-3.45 1.44h-2.45c-1.34 0-2.49-.48-3.45-1.44s-1.44-2.11-1.44-3.45v-7.34c0-1.34.48-2.49 1.44-3.45s2.11-1.44 3.45-1.44h2.45c1.34 0 2.49.48 3.45 1.44s1.44 2.11 1.44 3.45v7.34Zm-2.45 0v-7.34c0-.67-.24-1.24-.72-1.72s-1.06-.72-1.72-.72h-2.45c-.67 0-1.24.24-1.72.72s-.72 1.06-.72 1.72v7.34c0 .67.24 1.24.72 1.72s1.06.72 1.72.72h2.45c.67 0 1.24-.24 1.72-.72s.72-1.06.72-1.72ZM212.78 228.76h-2.45v-5.65l-7.34-7.34v12.99h-2.45v-17.12h1.69l8.09 8.09v-8.09h2.45v17.12ZM242.13 221.42h-4.89v4.89h-2.45v-4.89h-4.89v-2.45h4.89v-4.89h2.45v4.89h4.89v2.45ZM271.47 223.87c0 1.35-.48 2.51-1.44 3.46s-2.11 1.43-3.45 1.43h-2.45c-1.34 0-2.49-.48-3.45-1.43s-1.44-2.11-1.44-3.46v-12.23h2.45v12.23c0 .67.24 1.24.72 1.72s1.06.72 1.72.72h2.45c.67 0 1.24-.24 1.72-.72s.72-1.06.72-1.72v-12.23h2.45v12.23ZM286.15 228.76h-12.23v-2.45h4.89v-12.23h-4.89v-2.45h12.23v2.45h-4.89v12.23h4.89v2.45ZM297.05 225.7c0 .68-.22 1.26-.67 1.74-.45.47-1.01.71-1.68.71s-1.24-.24-1.72-.72-.72-1.05-.72-1.72.24-1.24.72-1.72 1.06-.72 1.72-.72 1.23.24 1.68.71c.45.47.67 1.05.67 1.74ZM315.49 223.87c0 1.34-.48 2.49-1.44 3.45s-2.11 1.44-3.45 1.44h-7.34v-17.12h7.34c1.34 0 2.49.48 3.45 1.44s1.44 2.11 1.44 3.45v7.34Zm-2.45 0v-7.34c0-.67-.24-1.24-.72-1.72s-1.06-.72-1.72-.72h-4.89v12.23h4.89c.67 0 1.24-.24 1.72-.72s.72-1.06.72-1.72ZM330.16 228.76h-12.23v-17.12h12.23v2.45h-9.78v4.89h7.34v2.45h-7.34v4.89h9.78v2.45ZM344.84 216.53l-6.11 12.23-6.11-12.23v-4.89h2.45v4.33l3.67 7.29 3.67-7.34v-4.28h2.45v4.89Z"/></g><path fill="#7b5ea7" d="M94.4 257.83h195.2v54.84H94.4z"/><g fill="#f9f4da"><path d="M131.41 293.9h-12.37v-17.31h2.47v14.84h9.89v2.47ZM146.25 293.9h-12.37v-17.31h12.37v2.47h-9.89v4.95h7.42v2.47h-7.42v4.95h9.89v2.47ZM151.19 288.95v4.95h-2.47v-8.04l4.65-9.27h3.09l4.62 9.27v8.04h-2.47v-4.95h-7.42Zm3.71-9.89-3.71 7.42h7.42l-3.71-7.42ZM173.46 293.9v-4.95c0-.68-.24-1.26-.73-1.74s-1.07-.73-1.74-.73h-4.95v7.42h-2.47v-17.31h7.42c1.37 0 2.54.48 3.5 1.45s1.45 2.13 1.45 3.5c0 1.48-.7 2.72-2.1 3.71 1.4.99 2.1 2.23 2.1 3.71v4.95h-2.47Zm-7.42-9.89h4.95c.68 0 1.26-.24 1.74-.73s.73-1.07.73-1.74-.24-1.26-.73-1.74-1.07-.73-1.74-.73h-4.95v4.95ZM190.77 293.9h-2.47v-5.71l-7.42-7.42v13.13h-2.47v-17.31h1.71l8.19 8.19v-8.19h2.47v17.31ZM220.45 293.9h-2.47v-12.99l-2.47 2.47v3.09h-2.47v-3.09l-2.47-2.47v12.99h-2.47v-17.31h1.86l4.33 4.33 4.33-4.33h1.86v17.31ZM235.29 288.95c0 1.35-.49 2.52-1.46 3.49-.97.97-2.14 1.46-3.49 1.46h-2.47c-1.35 0-2.52-.49-3.49-1.46s-1.46-2.14-1.46-3.49v-7.42c0-1.35.49-2.51 1.46-3.49s2.14-1.46 3.49-1.46h2.47c1.35 0 2.51.49 3.49 1.46.97.97 1.46 2.14 1.46 3.49v7.42Zm-2.47 0v-7.42c0-.68-.24-1.26-.73-1.74s-1.07-.73-1.74-.73h-2.47c-.68 0-1.26.24-1.74.73s-.73 1.07-.73 1.74v7.42c0 .68.24 1.26.73 1.74s1.07.73 1.74.73h2.47c.68 0 1.26-.24 1.74-.73s.73-1.07.73-1.74ZM247.66 293.9v-4.95c0-.68-.24-1.26-.73-1.74s-1.07-.73-1.74-.73h-4.95v7.42h-2.47v-17.31h7.42c1.37 0 2.54.48 3.5 1.45s1.45 2.13 1.45 3.5c0 1.48-.7 2.72-2.1 3.71 1.4.99 2.1 2.23 2.1 3.71v4.95h-2.47Zm-7.42-9.89h4.95c.68 0 1.26-.24 1.74-.73s.73-1.07.73-1.74-.24-1.26-.73-1.74-1.07-.73-1.74-.73h-4.95v4.95ZM264.97 293.9H252.6v-17.31h12.37v2.47h-9.89v4.95h7.42v2.47h-7.42v4.95h9.89v2.47Z"/></g></svg>