<svg xmlns="http://www.w3.org/2000/svg" viewBox="0 0 2603 160"><path fill="#f9f4da" d="M.99 0H2603v160H.99z"/><g fill="#7b5ea7"><path d="M1328.85 90.3v8.4h-4.2V85.05l7.9-15.75h5.25l7.85 15.75V98.7h-4.2v-8.4h-12.6Zm6.3-16.8-6.3 12.6h12.6l-6.3-12.6ZM1396.05 98.7h-4.2V89l-12.6-12.6v22.3h-4.2V69.3h2.9l13.9 13.9V69.3h4.2v29.4ZM1421.25 98.7h-21V69.3h21v4.2h-16.8v8.4h12.6v4.2h-12.6v8.4h16.8v4.2ZM1446.45 98.7h-3.15l-7.35-7.35-7.35 7.35h-3.15V69.3h4.2v22.05l4.2-4.2V81.9h4.2v5.25l4.2 4.2V69.3h4.2v29.4ZM1496.85 90.3c0 2.3-.83 4.27-2.48 5.92s-3.63 2.48-5.92 2.48h-4.2c-2.3 0-4.27-.83-5.92-2.48-1.65-1.65-2.48-3.63-2.48-5.92V77.7c0-2.3.83-4.27 2.48-5.92s3.62-2.48 5.92-2.48h4.2c2.3 0 4.27.83 5.92 2.48 1.65 1.65 2.48 3.63 2.48 5.92h-4.2c0-1.15-.41-2.13-1.24-2.96-.83-.83-1.81-1.24-2.96-1.24h-4.2c-1.15 0-2.14.41-2.96 1.24s-1.24 1.81-1.24 2.96v12.6c0 1.15.41 2.14 1.24 2.96.83.83 1.81 1.24 2.96 1.24h4.2c1.15 0 2.13-.41 2.96-1.24.83-.83 1.24-1.81 1.24-2.96h4.2ZM1522.04 90.3c0 2.3-.83 4.27-2.48 5.92-1.65 1.65-3.63 2.48-5.92 2.48h-4.2c-2.3 0-4.27-.83-5.92-2.48s-2.48-3.63-2.48-5.92V77.7c0-2.3.83-4.27 2.48-5.92 1.65-1.65 3.63-2.48 5.92-2.48h4.2c2.3 0 4.27.83 5.92 2.48 1.65 1.65 2.48 3.63 2.48 5.92v12.6Zm-4.2 0V77.7c0-1.15-.41-2.13-1.24-2.96-.83-.83-1.81-1.24-2.96-1.24h-4.2c-1.15 0-2.13.41-2.96 1.24-.83.83-1.24 1.81-1.24 2.96v12.6c0 1.15.41 2.14 1.24 2.96.83.83 1.81 1.24 2.96 1.24h4.2c1.15 0 2.13-.41 2.96-1.24.83-.83 1.24-1.81 1.24-2.96ZM1547.25 90.3c0 2.33-.83 4.31-2.48 5.94s-3.63 2.46-5.92 2.46h-4.2c-2.3 0-4.27-.82-5.92-2.46-1.65-1.64-2.48-3.62-2.48-5.94v-21h4.2v21c0 1.15.41 2.14 1.24 2.96.83.83 1.81 1.24 2.96 1.24h4.2c1.15 0 2.13-.41 2.96-1.24.83-.83 1.24-1.81 1.24-2.96v-21h4.2v21ZM1568.25 98.7v-8.4c0-1.15-.41-2.13-1.24-2.96-.83-.83-1.81-1.24-2.96-1.24h-8.4v12.6h-4.2V69.3h12.6c2.32 0 4.3.82 5.94 2.46 1.64 1.64 2.46 3.62 2.46 5.94 0 2.52-1.19 4.62-3.57 6.3 2.38 1.68 3.57 3.78 3.57 6.3v8.4h-4.2Zm-12.6-16.8h8.4c1.15 0 2.13-.41 2.96-1.24.83-.83 1.24-1.81 1.24-2.96s-.41-2.13-1.24-2.96c-.83-.83-1.81-1.24-2.96-1.24h-8.4v8.4ZM1597.65 90.3c0 2.3-.83 4.27-2.48 5.92-1.65 1.65-3.63 2.48-5.92 2.48h-4.2c-2.29 0-4.27-.82-5.92-2.46s-2.48-3.62-2.48-5.94h4.2c0 1.15.41 2.14 1.24 2.96.83.83 1.81 1.24 2.96 1.24h4.2c1.15 0 2.13-.41 2.96-1.24.83-.83 1.24-1.81 1.24-2.96s-.41-2.13-1.24-2.96c-.83-.83-1.81-1.24-2.96-1.24h-4.2c-2.29 0-4.27-.83-5.92-2.48-1.65-1.65-2.48-3.63-2.48-5.92s.83-4.27 2.48-5.92c1.65-1.65 3.63-2.48 5.92-2.48h4.2c2.29 0 4.27.83 5.92 2.48 1.65 1.65 2.48 3.63 2.48 5.92h-4.2c0-1.15-.41-2.13-1.24-2.96-.83-.83-1.81-1.24-2.96-1.24h-4.2c-1.15 0-2.13.41-2.96 1.24-.83.83-1.24 1.81-1.24 2.96s.41 2.14 1.24 2.96c.83.83 1.81 1.24 2.96 1.24h4.2c2.29 0 4.27.83 5.92 2.48 1.65 1.65 2.48 3.63 2.48 5.92ZM1622.85 98.7h-21V69.3h21v4.2h-16.8v8.4h12.6v4.2h-12.6v8.4h16.8v4.2ZM1673.25 77.7c0 2.52-1.19 4.62-3.57 6.3 2.38 1.68 3.57 3.78 3.57 6.3 0 2.33-.82 4.31-2.46 5.94s-3.62 2.46-5.94 2.46h-12.6V69.3h12.6c2.32 0 4.3.82 5.94 2.46 1.64 1.64 2.46 3.62 2.46 5.94Zm-16.8-4.2v8.4h8.4c1.15 0 2.13-.41 2.96-1.24s1.24-1.81 1.24-2.96-.41-2.13-1.24-2.96c-.83-.83-1.81-1.24-2.96-1.24h-8.4Zm0 12.6v8.4h8.4c1.15 0 2.13-.41 2.96-1.24.83-.83 1.24-1.81 1.24-2.96s-.41-2.13-1.24-2.96c-.83-.83-1.81-1.24-2.96-1.24h-8.4ZM1698.45 80.6l-8.4 8.4v9.7h-4.2V89l-8.4-8.4V69.3h4.2V79l6.3 6.3 6.3-6.3v-9.7h4.2v11.3ZM1748.85 98.7h-4.2V76.65l-4.2 4.2v5.25h-4.2v-5.25l-4.2-4.2V98.7h-4.2V69.3h3.15l7.35 7.35 7.35-7.35h3.15v29.4ZM1757.25 90.3v8.4h-4.2V85.05l7.9-15.75h5.25l7.85 15.75V98.7h-4.2v-8.4h-12.6Zm6.3-16.8-6.3 12.6h12.6l-6.3-12.6ZM1795.04 98.7v-8.4c0-1.15-.41-2.13-1.24-2.96-.83-.83-1.81-1.24-2.96-1.24h-8.4v12.6h-4.2V69.3h12.6c2.32 0 4.3.82 5.94 2.46 1.64 1.64 2.46 3.62 2.46 5.94 0 2.52-1.19 4.62-3.57 6.3 2.38 1.68 3.57 3.78 3.57 6.3v8.4h-4.2Zm-12.6-16.8h8.4c1.15 0 2.13-.41 2.96-1.24s1.24-1.81 1.24-2.96-.41-2.13-1.24-2.96c-.83-.83-1.81-1.24-2.96-1.24h-8.4v8.4ZM1824.45 98.7h-4.2l-12.6-12.6v12.6h-4.2V69.3h4.2v12.6l12.6-12.6h4.2v1.55L1811.3 84l13.15 13.1v1.6ZM1874.84 98.7h-21V69.3h21v4.2h-16.8v8.4h12.6v4.2h-12.6v8.4h16.8v4.2ZM1895.84 98.7v-8.4c0-1.15-.41-2.13-1.24-2.96-.83-.83-1.81-1.24-2.96-1.24h-8.4v12.6h-4.2V69.3h12.6c2.32 0 4.3.82 5.94 2.46 1.64 1.64 2.46 3.62 2.46 5.94 0 2.52-1.19 4.62-3.57 6.3 2.38 1.68 3.57 3.78 3.57 6.3v8.4h-4.2Zm-12.6-16.8h8.4c1.15 0 2.13-.41 2.96-1.24.83-.83 1.24-1.81 1.24-2.96s-.41-2.13-1.24-2.96c-.83-.83-1.81-1.24-2.96-1.24h-8.4v8.4ZM1925.24 98.7h-21v-4.2h8.4v-21h-8.4v-4.2h21v4.2h-8.4v21h8.4v4.2ZM1950.45 98.7h-4.2l-12.6-12.6v12.6h-4.2V69.3h4.2v12.6l12.6-12.6h4.2v1.55L1937.3 84l13.15 13.1v1.6ZM1975.64 90.3c0 2.3-.83 4.27-2.48 5.92s-3.63 2.48-5.92 2.48h-4.2c-2.3 0-4.27-.82-5.92-2.46-1.65-1.64-2.48-3.62-2.48-5.94h4.2c0 1.15.41 2.14 1.24 2.96.83.83 1.81 1.24 2.96 1.24h4.2c1.15 0 2.13-.41 2.96-1.24.83-.83 1.24-1.81 1.24-2.96s-.41-2.13-1.24-2.96c-.83-.83-1.81-1.24-2.96-1.24h-4.2c-2.3 0-4.27-.83-5.92-2.48-1.65-1.65-2.48-3.63-2.48-5.92s.83-4.27 2.48-5.92 3.62-2.48 5.92-2.48h4.2c2.3 0 4.27.83 5.92 2.48 1.65 1.65 2.48 3.63 2.48 5.92h-4.2c0-1.15-.41-2.13-1.24-2.96-.83-.83-1.81-1.24-2.96-1.24h-4.2c-1.15 0-2.14.41-2.96 1.24s-1.24 1.81-1.24 2.96.41 2.14 1.24 2.96c.83.83 1.81 1.24 2.96 1.24h4.2c2.3 0 4.27.83 5.92 2.48 1.65 1.65 2.48 3.63 2.48 5.92ZM2000.84 90.3c0 2.3-.83 4.27-2.48 5.92-1.65 1.65-3.63 2.48-5.92 2.48h-4.2c-2.29 0-4.27-.83-5.92-2.48s-2.48-3.63-2.48-5.92V77.7c0-2.3.83-4.27 2.48-5.92 1.65-1.65 3.63-2.48 5.92-2.48h4.2c2.29 0 4.27.83 5.92 2.48 1.65 1.65 2.48 3.63 2.48 5.92v12.6Zm-4.2 0V77.7c0-1.15-.41-2.13-1.24-2.96-.83-.83-1.81-1.24-2.96-1.24h-4.2c-1.15 0-2.13.41-2.96 1.24-.83.83-1.24 1.81-1.24 2.96v12.6c0 1.15.41 2.14 1.24 2.96.83.83 1.81 1.24 2.96 1.24h4.2c1.15 0 2.13-.41 2.96-1.24.83-.83 1.24-1.81 1.24-2.96ZM2026.04 98.7h-4.2V89l-12.6-12.6v22.3h-4.2V69.3h2.9l13.9 13.9V69.3h4.2v29.4ZM2076.44 86.1h-8.4v8.4h-4.2v-8.4h-8.4v-4.2h8.4v-8.4h4.2v8.4h8.4v4.2ZM2126.84 90.3c0 2.33-.83 4.31-2.48 5.94s-3.62 2.46-5.92 2.46h-4.2c-2.3 0-4.27-.82-5.92-2.46s-2.48-3.62-2.48-5.94v-21h4.2v21c0 1.15.41 2.14 1.24 2.96.83.83 1.81 1.24 2.96 1.24h4.2c1.15 0 2.13-.41 2.96-1.24.83-.83 1.24-1.81 1.24-2.96v-21h4.2v21ZM2152.04 98.7h-21v-4.2h8.4v-21h-8.4v-4.2h21v4.2h-8.4v21h8.4v4.2ZM2170.78 93.45c0 1.18-.39 2.17-1.16 2.98s-1.73 1.22-2.88 1.22-2.13-.41-2.96-1.24c-.83-.83-1.24-1.81-1.24-2.96s.41-2.13 1.24-2.96c.83-.83 1.81-1.24 2.96-1.24s2.11.41 2.88 1.22 1.16 1.81 1.16 2.98ZM2202.44 90.3c0 2.3-.83 4.27-2.48 5.92s-3.62 2.48-5.92 2.48h-12.6V69.3h12.6c2.3 0 4.27.83 5.92 2.48 1.65 1.65 2.48 3.63 2.48 5.92v12.6Zm-4.2 0V77.7c0-1.15-.41-2.13-1.24-2.96-.83-.83-1.81-1.24-2.96-1.24h-8.4v21h8.4c1.15 0 2.13-.41 2.96-1.24.83-.83 1.24-1.81 1.24-2.96ZM2227.64 98.7h-21V69.3h21v4.2h-16.8v8.4h12.6v4.2h-12.6v8.4h16.8v4.2ZM2252.84 77.7l-10.5 21-10.5-21v-8.4h4.2v7.43l6.3 12.52 6.3-12.6V69.3h4.2v8.4Z"/></g><g stroke="#7b5ea7" stroke-linejoin="round" stroke-width=".86"><g fill="#7b5ea7"><path d="M307.68 100.45V88.29c0-1.25-.42-2.3-1.27-3.15-.85-.85-1.81-1.27-2.87-1.27h-9.67v16.58h-8.29v-40.9h17.96c3.5 0 6.45 1.2 8.84 3.59 2.39 2.39 3.59 5.25 3.59 8.57 0 3.65-1.33 6.41-3.98 8.29 2.65 1.88 3.98 4.64 3.98 8.29v12.16h-8.29Zm-13.82-24.31h9.67c1.07 0 2.03-.42 2.87-1.27.85-.85 1.27-1.9 1.27-3.15s-.42-2.3-1.27-3.15c-.85-.85-1.81-1.27-2.87-1.27h-9.67v8.84ZM349.13 100.45h-30.39v-40.9h30.39v7.74h-22.1v8.84h16.58v7.74h-16.58v8.84h22.1v7.74ZM382.28 88.29c0 3.28-1.21 6.13-3.62 8.54-2.41 2.41-5.35 3.62-8.81 3.62h-17.96v-40.9h17.96c3.46 0 6.4 1.21 8.81 3.62s3.62 5.26 3.62 8.54v16.58Zm-8.29 0V71.71c0-1.25-.42-2.3-1.27-3.15-.85-.85-1.81-1.27-2.87-1.27h-9.67v25.42h9.67c1.07 0 2.03-.42 2.87-1.27.85-.85 1.27-1.9 1.27-3.15ZM415.44 88.29c0 3.32-1.21 6.17-3.62 8.57-2.41 2.4-5.35 3.59-8.81 3.59h-5.53c-3.46 0-6.4-1.2-8.81-3.59-2.41-2.39-3.62-5.25-3.62-8.57V59.55h8.29v28.74c0 1.25.42 2.3 1.27 3.15.85.85 1.8 1.27 2.87 1.27h5.53c1.07 0 2.03-.42 2.87-1.27.85-.85 1.27-1.9 1.27-3.15V59.55h8.29v28.74ZM448.6 100.45h-8.29v-7.96l-6.91-6.91-6.91 6.91v7.96h-8.29V89.62l9.62-9.62-9.62-9.62V59.55h8.29v7.96l6.91 6.91 6.91-6.91v-7.96h8.29v10.83L438.98 80l9.62 9.62v10.83ZM522.37 100.45h-30.39v-40.9h30.39v7.74h-22.1v8.84h16.58v7.74h-16.58v8.84h22.1v7.74ZM555.53 71.93l-15.2 28.02-15.2-28.02V59.55h8.29v10.67l6.91 13.7 6.91-13.82V59.55h8.29v12.38ZM485.6 63.17c-2.41-2.41-5.35-3.62-8.81-3.62h-17.96v10.83l8.29 8.29V67.29h9.67c1.07 0 2.03.42 2.87 1.27.85.85 1.27 1.9 1.27 3.15v16.58c0 1.25-.42 2.3-1.27 3.15s-1.81 1.27-2.87 1.27h-9.67V81.33l-8.29 8.29v10.83h17.96c3.46 0 6.4-1.21 8.81-3.62s3.62-5.26 3.62-8.54V71.71c0-3.28-1.21-6.12-3.62-8.54Z"/><circle cx="453.71" cy="80" r="3.61"/></g><g fill="#f9f4da"><path d="M583.76 100.45V88.29c0-1.25-.42-2.3-1.27-3.15-.85-.85-1.81-1.27-2.87-1.27h-9.67v16.58h-8.29v-40.9h17.96c3.5 0 6.45 1.2 8.84 3.59 2.39 2.39 3.59 5.25 3.59 8.57 0 3.65-1.33 6.41-3.98 8.29 2.65 1.88 3.98 4.64 3.98 8.29v12.16h-8.29Zm-13.82-24.31h9.67c1.07 0 2.03-.42 2.87-1.27.85-.85 1.27-1.9 1.27-3.15s-.42-2.3-1.27-3.15c-.85-.85-1.81-1.27-2.87-1.27h-9.67v8.84ZM625.21 100.45h-30.39v-40.9h30.39v7.74h-22.1v8.84h16.58v7.74h-16.58v8.84h22.1v7.74ZM658.37 88.29c0 3.28-1.21 6.13-3.62 8.54-2.41 2.41-5.35 3.62-8.81 3.62h-17.96v-40.9h17.96c3.46 0 6.4 1.21 8.81 3.62s3.62 5.26 3.62 8.54v16.58Zm-8.29 0V71.71c0-1.25-.42-2.3-1.27-3.15-.85-.85-1.81-1.27-2.87-1.27h-9.67v25.42h9.67c1.07 0 2.03-.42 2.87-1.27.85-.85 1.27-1.9 1.27-3.15ZM691.52 88.29c0 3.32-1.21 6.17-3.62 8.57-2.41 2.4-5.35 3.59-8.81 3.59h-5.53c-3.46 0-6.4-1.2-8.81-3.59-2.41-2.39-3.62-5.25-3.62-8.57V59.55h8.29v28.74c0 1.25.42 2.3 1.27 3.15.85.85 1.8 1.27 2.87 1.27h5.53c1.07 0 2.03-.42 2.87-1.27.85-.85 1.27-1.9 1.27-3.15V59.55h8.29v28.74ZM724.68 100.45h-8.29v-7.96l-6.91-6.91-6.91 6.91v7.96h-8.29V89.62L703.9 80l-9.62-9.62V59.55h8.29v7.96l6.91 6.91 6.91-6.91v-7.96h8.29v10.83L715.06 80l9.62 9.62v10.83ZM798.45 100.45h-30.39v-40.9h30.39v7.74h-22.1v8.84h16.58v7.74h-16.58v8.84h22.1v7.74ZM831.61 71.93l-15.2 28.02-15.2-28.02V59.55h8.29v10.67l6.91 13.7 6.91-13.82V59.55h8.29v12.38ZM761.68 63.17c-2.41-2.41-5.35-3.62-8.81-3.62h-17.96v10.83l8.29 8.29V67.29h9.67c1.07 0 2.03.42 2.87 1.27.85.85 1.27 1.9 1.27 3.15v16.58c0 1.25-.42 2.3-1.27 3.15s-1.81 1.27-2.87 1.27h-9.67V81.33l-8.29 8.29v10.83h17.96c3.46 0 6.4-1.21 8.81-3.62s3.62-5.26 3.62-8.54V71.71c0-3.28-1.21-6.12-3.62-8.54Z"/><circle cx="729.79" cy="80" r="3.61"/></g><g fill="#f9f4da"><path d="M31.6 100.45V88.29c0-1.25-.42-2.3-1.27-3.15-.85-.85-1.81-1.27-2.87-1.27h-9.67v16.58h-8.3v-40.9h17.96c3.5 0 6.45 1.2 8.84 3.59 2.39 2.39 3.59 5.25 3.59 8.57 0 3.65-1.33 6.41-3.98 8.29 2.65 1.88 3.98 4.64 3.98 8.29v12.16h-8.29ZM17.78 76.14h9.67c1.07 0 2.03-.42 2.87-1.27.85-.85 1.27-1.9 1.27-3.15s-.42-2.3-1.27-3.15c-.85-.85-1.81-1.27-2.87-1.27h-9.67v8.84ZM73.04 100.45H42.65v-40.9h30.39v7.74h-22.1v8.84h16.58v7.74H50.94v8.84h22.1v7.74ZM106.2 88.29c0 3.28-1.21 6.13-3.62 8.54-2.41 2.41-5.35 3.62-8.81 3.62H75.81v-40.9h17.96c3.46 0 6.4 1.21 8.81 3.62s3.62 5.26 3.62 8.54v16.58Zm-8.29 0V71.71c0-1.25-.42-2.3-1.27-3.15-.85-.85-1.81-1.27-2.87-1.27H84.1v25.42h9.67c1.07 0 2.03-.42 2.87-1.27.85-.85 1.27-1.9 1.27-3.15ZM139.36 88.29c0 3.32-1.21 6.17-3.62 8.57-2.41 2.4-5.35 3.59-8.81 3.59h-5.53c-3.46 0-6.4-1.2-8.81-3.59-2.41-2.39-3.62-5.25-3.62-8.57V59.55h8.29v28.74c0 1.25.42 2.3 1.27 3.15.85.85 1.8 1.27 2.87 1.27h5.53c1.07 0 2.03-.42 2.87-1.27.85-.85 1.27-1.9 1.27-3.15V59.55h8.29v28.74ZM172.51 100.45h-8.29v-7.96l-6.91-6.91-6.91 6.91v7.96h-8.29V89.62l9.62-9.62-9.62-9.62V59.55h8.29v7.96l6.91 6.91 6.91-6.91v-7.96h8.29v10.83L162.89 80l9.62 9.62v10.83ZM246.29 100.45H215.9v-40.9h30.39v7.74h-22.1v8.84h16.58v7.74h-16.58v8.84h22.1v7.74ZM279.44 71.93l-15.2 28.02-15.2-28.02V59.55h8.29v10.67l6.91 13.7 6.91-13.82V59.55h8.29v12.38ZM209.51 63.17c-2.41-2.41-5.35-3.62-8.81-3.62h-17.96v10.83l8.29 8.29V67.29h9.67c1.07 0 2.03.42 2.87 1.27.85.85 1.27 1.9 1.27 3.15v16.58c0 1.25-.42 2.3-1.27 3.15s-1.81 1.27-2.87 1.27h-9.67V81.33l-8.29 8.29v10.83h17.96c3.46 0 6.4-1.21 8.81-3.62s3.62-5.26 3.62-8.54V71.71c0-3.28-1.21-6.12-3.62-8.54Z"/><circle cx="177.63" cy="80" r="3.61"/></g><g fill="#f9f4da"><path d="M307.68 52.76V40.6c0-1.25-.42-2.3-1.27-3.15-.85-.85-1.81-1.27-2.87-1.27h-9.67v16.58h-8.29V11.87h17.96c3.5 0 6.45 1.2 8.84 3.59 2.39 2.39 3.59 5.25 3.59 8.57 0 3.65-1.33 6.41-3.98 8.29 2.65 1.88 3.98 4.64 3.98 8.29v12.16h-8.29Zm-13.82-24.31h9.67c1.07 0 2.03-.42 2.87-1.27.85-.85 1.27-1.9 1.27-3.15s-.42-2.3-1.27-3.15c-.85-.85-1.81-1.27-2.87-1.27h-9.67v8.84ZM349.13 52.76h-30.39V11.87h30.39v7.74h-22.1v8.84h16.58v7.74h-16.58v8.84h22.1v7.74ZM382.28 40.6c0 3.28-1.21 6.13-3.62 8.54-2.41 2.41-5.35 3.62-8.81 3.62h-17.96V11.87h17.96c3.46 0 6.4 1.21 8.81 3.62s3.62 5.26 3.62 8.54v16.58Zm-8.29 0V24.02c0-1.25-.42-2.3-1.27-3.15-.85-.85-1.81-1.27-2.87-1.27h-9.67v25.42h9.67c1.07 0 2.03-.42 2.87-1.27.85-.85 1.27-1.9 1.27-3.15ZM415.44 40.6c0 3.32-1.21 6.17-3.62 8.57-2.41 2.4-5.35 3.59-8.81 3.59h-5.53c-3.46 0-6.4-1.2-8.81-3.59-2.41-2.39-3.62-5.25-3.62-8.57V11.87h8.29v28.74c0 1.25.42 2.3 1.27 3.15.85.85 1.8 1.27 2.87 1.27h5.53c1.07 0 2.03-.42 2.87-1.27.85-.85 1.27-1.9 1.27-3.15V11.87h8.29v28.74ZM448.6 52.76h-8.29V44.8l-6.91-6.91-6.91 6.91v7.96h-8.29V41.93l9.62-9.62-9.62-9.62V11.87h8.29v7.96l6.91 6.91 6.91-6.91v-7.96h8.29V22.7l-9.62 9.62 9.62 9.62v10.83ZM522.37 52.76h-30.39V11.87h30.39v7.74h-22.1v8.84h16.58v7.74h-16.58v8.84h22.1v7.74ZM555.53 24.24l-15.2 28.02-15.2-28.02V11.87h8.29v10.67l6.91 13.7 6.91-13.82V11.87h8.29v12.38ZM485.6 15.48c-2.41-2.41-5.35-3.62-8.81-3.62h-17.96v10.83l8.29 8.29V19.6h9.67c1.07 0 2.03.42 2.87 1.27.85.85 1.27 1.9 1.27 3.15V40.6c0 1.25-.42 2.3-1.27 3.15s-1.81 1.27-2.87 1.27h-9.67V33.64l-8.29 8.29v10.83h17.96c3.46 0 6.4-1.21 8.81-3.62s3.62-5.26 3.62-8.54V24.02c0-3.28-1.21-6.12-3.62-8.54Z"/><circle cx="453.71" cy="32.31" r="3.61"/></g><g fill="#f9f4da"><path d="M583.76 52.76V40.6c0-1.25-.42-2.3-1.27-3.15-.85-.85-1.81-1.27-2.87-1.27h-9.67v16.58h-8.29V11.87h17.96c3.5 0 6.45 1.2 8.84 3.59 2.39 2.39 3.59 5.25 3.59 8.57 0 3.65-1.33 6.41-3.98 8.29 2.65 1.88 3.98 4.64 3.98 8.29v12.16h-8.29Zm-13.82-24.31h9.67c1.07 0 2.03-.42 2.87-1.27.85-.85 1.27-1.9 1.27-3.15s-.42-2.3-1.27-3.15c-.85-.85-1.81-1.27-2.87-1.27h-9.67v8.84ZM625.21 52.76h-30.39V11.87h30.39v7.74h-22.1v8.84h16.58v7.74h-16.58v8.84h22.1v7.74ZM658.37 40.6c0 3.28-1.21 6.13-3.62 8.54-2.41 2.41-5.35 3.62-8.81 3.62h-17.96V11.87h17.96c3.46 0 6.4 1.21 8.81 3.62s3.62 5.26 3.62 8.54v16.58Zm-8.29 0V24.02c0-1.25-.42-2.3-1.27-3.15-.85-.85-1.81-1.27-2.87-1.27h-9.67v25.42h9.67c1.07 0 2.03-.42 2.87-1.27.85-.85 1.27-1.9 1.27-3.15ZM691.52 40.6c0 3.32-1.21 6.17-3.62 8.57-2.41 2.4-5.35 3.59-8.81 3.59h-5.53c-3.46 0-6.4-1.2-8.81-3.59-2.41-2.39-3.62-5.25-3.62-8.57V11.87h8.29v28.74c0 1.25.42 2.3 1.27 3.15.85.85 1.8 1.27 2.87 1.27h5.53c1.07 0 2.03-.42 2.87-1.27.85-.85 1.27-1.9 1.27-3.15V11.87h8.29v28.74ZM724.68 52.76h-8.29V44.8l-6.91-6.91-6.91 6.91v7.96h-8.29V41.93l9.62-9.62-9.62-9.62V11.87h8.29v7.96l6.91 6.91 6.91-6.91v-7.96h8.29V22.7l-9.62 9.62 9.62 9.62v10.83ZM798.45 52.76h-30.39V11.87h30.39v7.74h-22.1v8.84h16.58v7.74h-16.58v8.84h22.1v7.74ZM831.61 24.24l-15.2 28.02-15.2-28.02V11.87h8.29v10.67l6.91 13.7 6.91-13.82V11.87h8.29v12.38ZM761.68 15.48c-2.41-2.41-5.35-3.62-8.81-3.62h-17.96v10.83l8.29 8.29V19.6h9.67c1.07 0 2.03.42 2.87 1.27.85.85 1.27 1.9 1.27 3.15V40.6c0 1.25-.42 2.3-1.27 3.15s-1.81 1.27-2.87 1.27h-9.67V33.64l-8.29 8.29v10.83h17.96c3.46 0 6.4-1.21 8.81-3.62s3.62-5.26 3.62-8.54V24.02c0-3.28-1.21-6.12-3.62-8.54Z"/><circle cx="729.79" cy="32.31" r="3.61"/></g><g fill="#f9f4da"><path d="M31.6 52.76V40.6c0-1.25-.42-2.3-1.27-3.15-.85-.85-1.81-1.27-2.87-1.27h-9.67v16.58h-8.3V11.87h17.96c3.5 0 6.45 1.2 8.84 3.59 2.39 2.39 3.59 5.25 3.59 8.57 0 3.65-1.33 6.41-3.98 8.29 2.65 1.88 3.98 4.64 3.98 8.29v12.16h-8.29ZM17.78 28.45h9.67c1.07 0 2.03-.42 2.87-1.27.85-.85 1.27-1.9 1.27-3.15s-.42-2.3-1.27-3.15c-.85-.85-1.81-1.27-2.87-1.27h-9.67v8.84ZM73.04 52.76H42.65V11.87h30.39v7.74h-22.1v8.84h16.58v7.74H50.94v8.84h22.1v7.74ZM106.2 40.6c0 3.28-1.21 6.13-3.62 8.54-2.41 2.41-5.35 3.62-8.81 3.62H75.81V11.87h17.96c3.46 0 6.4 1.21 8.81 3.62s3.62 5.26 3.62 8.54v16.58Zm-8.29 0V24.02c0-1.25-.42-2.3-1.27-3.15-.85-.85-1.81-1.27-2.87-1.27H84.1v25.42h9.67c1.07 0 2.03-.42 2.87-1.27.85-.85 1.27-1.9 1.27-3.15ZM139.36 40.6c0 3.32-1.21 6.17-3.62 8.57-2.41 2.4-5.35 3.59-8.81 3.59h-5.53c-3.46 0-6.4-1.2-8.81-3.59-2.41-2.39-3.62-5.25-3.62-8.57V11.87h8.29v28.74c0 1.25.42 2.3 1.27 3.15.85.85 1.8 1.27 2.87 1.27h5.53c1.07 0 2.03-.42 2.87-1.27.85-.85 1.27-1.9 1.27-3.15V11.87h8.29v28.74ZM172.51 52.76h-8.29V44.8l-6.91-6.91-6.91 6.91v7.96h-8.29V41.93l9.62-9.62-9.62-9.62V11.87h8.29v7.96l6.91 6.91 6.91-6.91v-7.96h8.29V22.7l-9.62 9.62 9.62 9.62v10.83ZM246.29 52.76H215.9V11.87h30.39v7.74h-22.1v8.84h16.58v7.74h-16.58v8.84h22.1v7.74ZM279.44 24.24l-15.2 28.02-15.2-28.02V11.87h8.29v10.67l6.91 13.7 6.91-13.82V11.87h8.29v12.38ZM209.51 15.48c-2.41-2.41-5.35-3.62-8.81-3.62h-17.96v10.83l8.29 8.29V19.6h9.67c1.07 0 2.03.42 2.87 1.27.85.85 1.27 1.9 1.27 3.15V40.6c0 1.25-.42 2.3-1.27 3.15s-1.81 1.27-2.87 1.27h-9.67V33.64l-8.29 8.29v10.83h17.96c3.46 0 6.4-1.21 8.81-3.62s3.62-5.26 3.62-8.54V24.02c0-3.28-1.21-6.12-3.62-8.54Z"/><circle cx="177.63" cy="32.31" r="3.61"/></g><g fill="#f9f4da"><path d="M307.68 148.13v-12.16c0-1.25-.42-2.3-1.27-3.15-.85-.85-1.81-1.27-2.87-1.27h-9.67v16.58h-8.29v-40.89h17.96c3.5 0 6.45 1.2 8.84 3.59 2.39 2.39 3.59 5.25 3.59 8.57 0 3.65-1.33 6.41-3.98 8.29 2.65 1.88 3.98 4.64 3.98 8.29v12.16h-8.29Zm-13.82-24.31h9.67c1.07 0 2.03-.42 2.87-1.27.85-.85 1.27-1.9 1.27-3.15s-.42-2.3-1.27-3.15c-.85-.85-1.81-1.27-2.87-1.27h-9.67v8.84ZM349.13 148.13h-30.39v-40.89h30.39v7.74h-22.1v8.84h16.58v7.74h-16.58v8.84h22.1v7.74ZM382.28 135.98c0 3.28-1.21 6.13-3.62 8.54-2.41 2.41-5.35 3.62-8.81 3.62h-17.96v-40.89h17.96c3.46 0 6.4 1.21 8.81 3.62s3.62 5.26 3.62 8.54v16.58Zm-8.29 0V119.4c0-1.25-.42-2.3-1.27-3.15-.85-.85-1.81-1.27-2.87-1.27h-9.67v25.42h9.67c1.07 0 2.03-.42 2.87-1.27.85-.85 1.27-1.9 1.27-3.15ZM415.44 135.98c0 3.32-1.21 6.17-3.62 8.57-2.41 2.4-5.35 3.59-8.81 3.59h-5.53c-3.46 0-6.4-1.2-8.81-3.59-2.41-2.39-3.62-5.25-3.62-8.57v-28.74h8.29v28.74c0 1.25.42 2.3 1.27 3.15.85.85 1.8 1.27 2.87 1.27h5.53c1.07 0 2.03-.42 2.87-1.27.85-.85 1.27-1.9 1.27-3.15v-28.74h8.29v28.74ZM448.6 148.13h-8.29v-7.96l-6.91-6.91-6.91 6.91v7.96h-8.29V137.3l9.62-9.62-9.62-9.62v-10.83h8.29v7.96l6.91 6.91 6.91-6.91v-7.96h8.29v10.83l-9.62 9.62 9.62 9.62v10.83ZM522.37 148.13h-30.39v-40.89h30.39v7.74h-22.1v8.84h16.58v7.74h-16.58v8.84h22.1v7.74ZM555.53 119.62l-15.2 28.02-15.2-28.02v-12.38h8.29v10.67l6.91 13.7 6.91-13.82v-10.55h8.29v12.38ZM485.6 110.86c-2.41-2.41-5.35-3.62-8.81-3.62h-17.96v10.83l8.29 8.29v-11.38h9.67c1.07 0 2.03.42 2.87 1.27.85.85 1.27 1.9 1.27 3.15v16.58c0 1.25-.42 2.3-1.27 3.15s-1.81 1.27-2.87 1.27h-9.67v-11.38l-8.29 8.29v10.83h17.96c3.46 0 6.4-1.21 8.81-3.62s3.62-5.26 3.62-8.54V119.4c0-3.28-1.21-6.12-3.62-8.54Z"/><circle cx="453.71" cy="127.69" r="3.61"/></g><g fill="#f9f4da"><path d="M583.76 148.13v-12.16c0-1.25-.42-2.3-1.27-3.15-.85-.85-1.81-1.27-2.87-1.27h-9.67v16.58h-8.29v-40.89h17.96c3.5 0 6.45 1.2 8.84 3.59 2.39 2.39 3.59 5.25 3.59 8.57 0 3.65-1.33 6.41-3.98 8.29 2.65 1.88 3.98 4.64 3.98 8.29v12.16h-8.29Zm-13.82-24.31h9.67c1.07 0 2.03-.42 2.87-1.27.85-.85 1.27-1.9 1.27-3.15s-.42-2.3-1.27-3.15c-.85-.85-1.81-1.27-2.87-1.27h-9.67v8.84ZM625.21 148.13h-30.39v-40.89h30.39v7.74h-22.1v8.84h16.58v7.74h-16.58v8.84h22.1v7.74ZM658.37 135.98c0 3.28-1.21 6.13-3.62 8.54-2.41 2.41-5.35 3.62-8.81 3.62h-17.96v-40.89h17.96c3.46 0 6.4 1.21 8.81 3.62s3.62 5.26 3.62 8.54v16.58Zm-8.29 0V119.4c0-1.25-.42-2.3-1.27-3.15-.85-.85-1.81-1.27-2.87-1.27h-9.67v25.42h9.67c1.07 0 2.03-.42 2.87-1.27.85-.85 1.27-1.9 1.27-3.15ZM691.52 135.98c0 3.32-1.21 6.17-3.62 8.57-2.41 2.4-5.35 3.59-8.81 3.59h-5.53c-3.46 0-6.4-1.2-8.81-3.59-2.41-2.39-3.62-5.25-3.62-8.57v-28.74h8.29v28.74c0 1.25.42 2.3 1.27 3.15.85.85 1.8 1.27 2.87 1.27h5.53c1.07 0 2.03-.42 2.87-1.27.85-.85 1.27-1.9 1.27-3.15v-28.74h8.29v28.74ZM724.68 148.13h-8.29v-7.96l-6.91-6.91-6.91 6.91v7.96h-8.29V137.3l9.62-9.62-9.62-9.62v-10.83h8.29v7.96l6.91 6.91 6.91-6.91v-7.96h8.29v10.83l-9.62 9.62 9.62 9.62v10.83ZM798.45 148.13h-30.39v-40.89h30.39v7.74h-22.1v8.84h16.58v7.74h-16.58v8.84h22.1v7.74ZM831.61 119.62l-15.2 28.02-15.2-28.02v-12.38h8.29v10.67l6.91 13.7 6.91-13.82v-10.55h8.29v12.38ZM761.68 110.86c-2.41-2.41-5.35-3.62-8.81-3.62h-17.96v10.83l8.29 8.29v-11.38h9.67c1.07 0 2.03.42 2.87 1.27.85.85 1.27 1.9 1.27 3.15v16.58c0 1.25-.42 2.3-1.27 3.15s-1.81 1.27-2.87 1.27h-9.67v-11.38l-8.29 8.29v10.83h17.96c3.46 0 6.4-1.21 8.81-3.62s3.62-5.26 3.62-8.54V119.4c0-3.28-1.21-6.12-3.62-8.54Z"/><circle cx="729.79" cy="127.69" r="3.61"/></g><g fill="#f9f4da"><path d="M31.6 148.13v-12.16c0-1.25-.42-2.3-1.27-3.15-.85-.85-1.81-1.27-2.87-1.27h-9.67v16.58h-8.3v-40.89h17.96c3.5 0 6.45 1.2 8.84 3.59 2.39 2.39 3.59 5.25 3.59 8.57 0 3.65-1.33 6.41-3.98 8.29 2.65 1.88 3.98 4.64 3.98 8.29v12.16h-8.29Zm-13.82-24.31h9.67c1.07 0 2.03-.42 2.87-1.27.85-.85 1.27-1.9 1.27-3.15s-.42-2.3-1.27-3.15c-.85-.85-1.81-1.27-2.87-1.27h-9.67v8.84ZM73.04 148.13H42.65v-40.89h30.39v7.74h-22.1v8.84h16.58v7.74H50.94v8.84h22.1v7.74ZM106.2 135.98c0 3.28-1.21 6.13-3.62 8.54-2.41 2.41-5.35 3.62-8.81 3.62H75.81v-40.89h17.96c3.46 0 6.4 1.21 8.81 3.62s3.62 5.26 3.62 8.54v16.58Zm-8.29 0V119.4c0-1.25-.42-2.3-1.27-3.15-.85-.85-1.81-1.27-2.87-1.27H84.1v25.42h9.67c1.07 0 2.03-.42 2.87-1.27.85-.85 1.27-1.9 1.27-3.15ZM139.36 135.98c0 3.32-1.21 6.17-3.62 8.57-2.41 2.4-5.35 3.59-8.81 3.59h-5.53c-3.46 0-6.4-1.2-8.81-3.59-2.41-2.39-3.62-5.25-3.62-8.57v-28.74h8.29v28.74c0 1.25.42 2.3 1.27 3.15.85.85 1.8 1.27 2.87 1.27h5.53c1.07 0 2.03-.42 2.87-1.27.85-.85 1.27-1.9 1.27-3.15v-28.74h8.29v28.74ZM172.51 148.13h-8.29v-7.96l-6.91-6.91-6.91 6.91v7.96h-8.29V137.3l9.62-9.62-9.62-9.62v-10.83h8.29v7.96l6.91 6.91 6.91-6.91v-7.96h8.29v10.83l-9.62 9.62 9.62 9.62v10.83ZM246.29 148.13H215.9v-40.89h30.39v7.74h-22.1v8.84h16.58v7.74h-16.58v8.84h22.1v7.74ZM279.44 119.62l-15.2 28.02-15.2-28.02v-12.38h8.29v10.67l6.91 13.7 6.91-13.82v-10.55h8.29v12.38ZM209.51 110.86c-2.41-2.41-5.35-3.62-8.81-3.62h-17.96v10.83l8.29 8.29v-11.38h9.67c1.07 0 2.03.42 2.87 1.27.85.85 1.27 1.9 1.27 3.15v16.58c0 1.25-.42 2.3-1.27 3.15s-1.81 1.27-2.87 1.27h-9.67v-11.38l-8.29 8.29v10.83h17.96c3.46 0 6.4-1.21 8.81-3.62s3.62-5.26 3.62-8.54V119.4c0-3.28-1.21-6.12-3.62-8.54Z"/><circle cx="177.63" cy="127.69" r="3.61"/></g></g><path fill="#7b5ea7" d="M2298.38 44.81h250.48v70.37h-250.48z"/><g fill="#f9f4da"><path d="M2345.87 91.1H2330V68.88h3.17v19.04h12.7v3.17ZM2364.91 91.1h-15.87V68.88h15.87v3.17h-12.7v6.35h9.52v3.17h-9.52v6.35h12.7v3.17ZM2371.26 84.76v6.35h-3.17V80.8l5.97-11.9h3.97l5.94 11.9v10.31h-3.17v-6.35h-9.52Zm4.76-12.7-4.76 9.52h9.52l-4.76-9.52ZM2399.82 91.1v-6.35c0-.87-.31-1.61-.94-2.24-.62-.62-1.37-.94-2.24-.94h-6.35v9.52h-3.17V68.87h9.52c1.76 0 3.25.62 4.49 1.86 1.24 1.24 1.86 2.73 1.86 4.49 0 1.9-.9 3.49-2.7 4.76 1.8 1.27 2.7 2.86 2.7 4.76v6.35h-3.17Zm-9.52-12.7h6.35c.87 0 1.61-.31 2.24-.94.62-.62.94-1.37.94-2.24s-.31-1.61-.94-2.24c-.62-.62-1.37-.94-2.24-.94h-6.35v6.35ZM2422.04 91.1h-3.17v-7.33l-9.52-9.52V91.1h-3.17V68.88h2.19l10.51 10.51V68.88h3.17V91.1ZM2460.13 91.1h-3.17V74.44l-3.17 3.17v3.97h-3.17v-3.97l-3.17-3.17V91.1h-3.17V68.88h2.38l5.55 5.55 5.55-5.55h2.38V91.1ZM2479.17 84.76c0 1.74-.62 3.23-1.87 4.47s-2.74 1.87-4.48 1.87h-3.17c-1.73 0-3.23-.62-4.47-1.87-1.25-1.25-1.87-2.74-1.87-4.47v-9.52c0-1.73.62-3.23 1.87-4.47s2.74-1.87 4.47-1.87h3.17c1.74 0 3.23.62 4.48 1.87 1.25 1.25 1.87 2.74 1.87 4.47v9.52Zm-3.17 0v-9.52c0-.87-.31-1.61-.94-2.24-.62-.62-1.37-.94-2.24-.94h-3.17c-.87 0-1.61.31-2.24.94s-.94 1.37-.94 2.24v9.52c0 .87.31 1.61.94 2.24.62.62 1.37.94 2.24.94h3.17c.87 0 1.61-.31 2.24-.94.62-.62.94-1.37.94-2.24ZM2495.04 91.1v-6.35c0-.87-.31-1.61-.94-2.24-.62-.62-1.37-.94-2.24-.94h-6.35v9.52h-3.17V68.87h9.52c1.76 0 3.25.62 4.49 1.86 1.24 1.24 1.86 2.73 1.86 4.49 0 1.9-.9 3.49-2.7 4.76 1.8 1.27 2.7 2.86 2.7 4.76v6.35h-3.17Zm-9.52-12.7h6.35c.87 0 1.61-.31 2.24-.94.62-.62.94-1.37.94-2.24s-.31-1.61-.94-2.24c-.62-.62-1.37-.94-2.24-.94h-6.35v6.35ZM2517.26 91.1h-15.87V68.88h15.87v3.17h-12.7v6.35h9.52v3.17h-9.52v6.35h12.7v3.17Z"/></g></svg>