<svg xmlns="http://www.w3.org/2000/svg" viewBox="0 0 1564 562"><path fill="#f9f4da" d="M0 0h1564v562H0z"/><g fill="#7b5ea7"><path d="M72.3 487.53v8.4h-4.2v-13.65l7.9-15.75h5.25l7.85 15.75v13.65h-4.2v-8.4H72.3Zm6.3-16.8-6.3 12.6h12.6l-6.3-12.6ZM139.5 495.93h-4.2v-9.7l-12.6-12.6v22.3h-4.2v-29.4h2.9l13.9 13.9v-13.9h4.2v29.4ZM164.7 495.93h-21v-29.4h21v4.2h-16.8v8.4h12.6v4.2h-12.6v8.4h16.8v4.2ZM189.9 495.93h-3.15l-7.35-7.35-7.35 7.35h-3.15v-29.4h4.2v22.05l4.2-4.2v-5.25h4.2v5.25l4.2 4.2v-22.05h4.2v29.4ZM240.3 487.53c0 2.3-.83 4.27-2.48 5.92-1.65 1.65-3.63 2.48-5.92 2.48h-4.2c-2.3 0-4.27-.83-5.92-2.48-1.65-1.65-2.48-3.62-2.48-5.92v-12.6c0-2.3.83-4.27 2.48-5.92 1.65-1.65 3.63-2.48 5.92-2.48h4.2c2.29 0 4.27.83 5.92 2.48 1.65 1.65 2.48 3.62 2.48 5.92h-4.2c0-1.15-.41-2.13-1.24-2.96-.83-.83-1.81-1.24-2.96-1.24h-4.2c-1.15 0-2.14.41-2.96 1.24-.83.83-1.24 1.81-1.24 2.96v12.6c0 1.15.41 2.13 1.24 2.96.83.83 1.81 1.24 2.96 1.24h4.2c1.15 0 2.13-.41 2.96-1.24.83-.83 1.24-1.81 1.24-2.96h4.2ZM265.5 487.53c0 2.3-.83 4.27-2.48 5.92s-3.63 2.48-5.92 2.48h-4.2c-2.3 0-4.27-.83-5.92-2.48s-2.48-3.62-2.48-5.92v-12.6c0-2.3.83-4.27 2.48-5.92s3.63-2.48 5.92-2.48h4.2c2.3 0 4.27.83 5.92 2.48s2.48 3.62 2.48 5.92v12.6Zm-4.2 0v-12.6c0-1.15-.41-2.13-1.24-2.96s-1.81-1.24-2.96-1.24h-4.2c-1.15 0-2.13.41-2.96 1.24s-1.24 1.81-1.24 2.96v12.6c0 1.15.41 2.13 1.24 2.96s1.81 1.24 2.96 1.24h4.2c1.15 0 2.13-.41 2.96-1.24s1.24-1.81 1.24-2.96ZM290.7 487.53c0 2.32-.83 4.3-2.48 5.94-1.65 1.64-3.63 2.46-5.92 2.46h-4.2c-2.3 0-4.27-.82-5.92-2.46-1.65-1.64-2.48-3.62-2.48-5.94v-21h4.2v21c0 1.15.41 2.13 1.24 2.96s1.81 1.24 2.96 1.24h4.2c1.15 0 2.13-.41 2.96-1.24s1.24-1.81 1.24-2.96v-21h4.2v21ZM311.7 495.93v-8.4c0-1.15-.41-2.13-1.24-2.96-.83-.83-1.81-1.24-2.96-1.24h-8.4v12.6h-4.2v-29.4h12.6c2.32 0 4.3.82 5.94 2.46 1.64 1.64 2.46 3.62 2.46 5.94 0 2.52-1.19 4.62-3.57 6.3 2.38 1.68 3.57 3.78 3.57 6.3v8.4h-4.2Zm-12.6-16.8h8.4c1.15 0 2.13-.41 2.96-1.24.83-.83 1.24-1.81 1.24-2.96s-.41-2.13-1.24-2.96c-.83-.83-1.81-1.24-2.96-1.24h-8.4v8.4ZM341.1 487.53c0 2.3-.83 4.27-2.48 5.92-1.65 1.65-3.63 2.48-5.92 2.48h-4.2c-2.3 0-4.27-.82-5.92-2.46-1.65-1.64-2.48-3.62-2.48-5.94h4.2c0 1.15.41 2.13 1.24 2.96.83.83 1.81 1.24 2.96 1.24h4.2c1.15 0 2.13-.41 2.96-1.24.83-.83 1.24-1.81 1.24-2.96s-.41-2.13-1.24-2.96c-.83-.83-1.81-1.24-2.96-1.24h-4.2c-2.3 0-4.27-.83-5.92-2.48-1.65-1.65-2.48-3.63-2.48-5.92s.83-4.27 2.48-5.92c1.65-1.65 3.63-2.48 5.92-2.48h4.2c2.29 0 4.27.83 5.92 2.48 1.65 1.65 2.48 3.62 2.48 5.92h-4.2c0-1.15-.41-2.13-1.24-2.96-.83-.83-1.81-1.24-2.96-1.24h-4.2c-1.15 0-2.14.41-2.96 1.24-.83.83-1.24 1.81-1.24 2.96s.41 2.13 1.24 2.96c.83.83 1.81 1.24 2.96 1.24h4.2c2.29 0 4.27.83 5.92 2.48 1.65 1.65 2.48 3.63 2.48 5.92ZM366.3 495.93h-21v-29.4h21v4.2h-16.8v8.4h12.6v4.2h-12.6v8.4h16.8v4.2ZM416.7 474.93c0 2.52-1.19 4.62-3.57 6.3 2.38 1.68 3.57 3.78 3.57 6.3 0 2.32-.82 4.3-2.46 5.94-1.64 1.64-3.62 2.46-5.94 2.46h-12.6v-29.4h12.6c2.32 0 4.3.82 5.94 2.46 1.64 1.64 2.46 3.62 2.46 5.94Zm-16.8-4.2v8.4h8.4c1.15 0 2.13-.41 2.96-1.24.83-.83 1.24-1.81 1.24-2.96s-.41-2.13-1.24-2.96c-.83-.83-1.81-1.24-2.96-1.24h-8.4Zm0 12.6v8.4h8.4c1.15 0 2.13-.41 2.96-1.24.83-.83 1.24-1.81 1.24-2.96s-.41-2.13-1.24-2.96c-.83-.83-1.81-1.24-2.96-1.24h-8.4ZM441.9 477.83l-8.4 8.4v9.7h-4.2v-9.7l-8.4-8.4v-11.3h4.2v9.7l6.3 6.3 6.3-6.3v-9.7h4.2v11.3ZM492.3 495.93h-4.2v-22.05l-4.2 4.2v5.25h-4.2v-5.25l-4.2-4.2v22.05h-4.2v-29.4h3.15l7.35 7.35 7.35-7.35h3.15v29.4ZM500.7 487.53v8.4h-4.2v-13.65l7.9-15.75h5.25l7.85 15.75v13.65h-4.2v-8.4h-12.6Zm6.3-16.8-6.3 12.6h12.6l-6.3-12.6ZM538.5 495.93v-8.4c0-1.15-.41-2.13-1.24-2.96-.83-.83-1.81-1.24-2.96-1.24h-8.4v12.6h-4.2v-29.4h12.6c2.32 0 4.3.82 5.94 2.46 1.64 1.64 2.46 3.62 2.46 5.94 0 2.52-1.19 4.62-3.57 6.3 2.38 1.68 3.57 3.78 3.57 6.3v8.4h-4.2Zm-12.6-16.8h8.4c1.15 0 2.13-.41 2.96-1.24.83-.83 1.24-1.81 1.24-2.96s-.41-2.13-1.24-2.96c-.83-.83-1.81-1.24-2.96-1.24h-8.4v8.4ZM567.9 495.93h-4.2l-12.6-12.6v12.6h-4.2v-29.4h4.2v12.6l12.6-12.6h4.2v1.55l-13.15 13.14 13.15 13.11v1.6ZM618.3 495.93h-21v-29.4h21v4.2h-16.8v8.4h12.6v4.2h-12.6v8.4h16.8v4.2ZM639.3 495.93v-8.4c0-1.15-.41-2.13-1.24-2.96-.83-.83-1.81-1.24-2.96-1.24h-8.4v12.6h-4.2v-29.4h12.6c2.32 0 4.3.82 5.94 2.46 1.64 1.64 2.46 3.62 2.46 5.94 0 2.52-1.19 4.62-3.57 6.3 2.38 1.68 3.57 3.78 3.57 6.3v8.4h-4.2Zm-12.6-16.8h8.4c1.15 0 2.13-.41 2.96-1.24.83-.83 1.24-1.81 1.24-2.96s-.41-2.13-1.24-2.96c-.83-.83-1.81-1.24-2.96-1.24h-8.4v8.4ZM668.7 495.93h-21v-4.2h8.4v-21h-8.4v-4.2h21v4.2h-8.4v21h8.4v4.2ZM693.9 495.93h-4.2l-12.6-12.6v12.6h-4.2v-29.4h4.2v12.6l12.6-12.6h4.2v1.55l-13.15 13.14 13.15 13.11v1.6ZM719.1 487.53c0 2.3-.83 4.27-2.48 5.92-1.65 1.65-3.63 2.48-5.92 2.48h-4.2c-2.3 0-4.27-.82-5.92-2.46-1.65-1.64-2.48-3.62-2.48-5.94h4.2c0 1.15.41 2.13 1.24 2.96.83.83 1.81 1.24 2.96 1.24h4.2c1.15 0 2.13-.41 2.96-1.24.83-.83 1.24-1.81 1.24-2.96s-.41-2.13-1.24-2.96c-.83-.83-1.81-1.24-2.96-1.24h-4.2c-2.3 0-4.27-.83-5.92-2.48-1.65-1.65-2.48-3.63-2.48-5.92s.83-4.27 2.48-5.92c1.65-1.65 3.63-2.48 5.92-2.48h4.2c2.29 0 4.27.83 5.92 2.48 1.65 1.65 2.48 3.62 2.48 5.92h-4.2c0-1.15-.41-2.13-1.24-2.96-.83-.83-1.81-1.24-2.96-1.24h-4.2c-1.15 0-2.14.41-2.96 1.24-.83.83-1.24 1.81-1.24 2.96s.41 2.13 1.24 2.96c.83.83 1.81 1.24 2.96 1.24h4.2c2.29 0 4.27.83 5.92 2.48 1.65 1.65 2.48 3.63 2.48 5.92ZM744.3 487.53c0 2.3-.83 4.27-2.48 5.92-1.65 1.65-3.63 2.48-5.92 2.48h-4.2c-2.3 0-4.27-.83-5.92-2.48-1.65-1.65-2.48-3.62-2.48-5.92v-12.6c0-2.3.83-4.27 2.48-5.92 1.65-1.65 3.63-2.48 5.92-2.48h4.2c2.29 0 4.27.83 5.92 2.48 1.65 1.65 2.48 3.62 2.48 5.92v12.6Zm-4.2 0v-12.6c0-1.15-.41-2.13-1.24-2.96-.83-.83-1.81-1.24-2.96-1.24h-4.2c-1.15 0-2.14.41-2.96 1.24-.83.83-1.24 1.81-1.24 2.96v12.6c0 1.15.41 2.13 1.24 2.96.83.83 1.81 1.24 2.96 1.24h4.2c1.15 0 2.13-.41 2.96-1.24.83-.83 1.24-1.81 1.24-2.96ZM769.5 495.93h-4.2v-9.7l-12.6-12.6v22.3h-4.2v-29.4h2.9l13.9 13.9v-13.9h4.2v29.4ZM819.9 483.33h-8.4v8.4h-4.2v-8.4h-8.4v-4.2h8.4v-8.4h4.2v8.4h8.4v4.2ZM870.3 487.53c0 2.32-.83 4.3-2.48 5.94-1.65 1.64-3.63 2.46-5.92 2.46h-4.2c-2.3 0-4.27-.82-5.92-2.46-1.65-1.64-2.48-3.62-2.48-5.94v-21h4.2v21c0 1.15.41 2.13 1.24 2.96s1.81 1.24 2.96 1.24h4.2c1.15 0 2.13-.41 2.96-1.24s1.24-1.81 1.24-2.96v-21h4.2v21ZM895.5 495.93h-21v-4.2h8.4v-21h-8.4v-4.2h21v4.2h-8.4v21h8.4v4.2ZM914.23 490.68c0 1.18-.38 2.17-1.16 2.98s-1.73 1.22-2.88 1.22-2.13-.41-2.96-1.24-1.24-1.81-1.24-2.96.41-2.13 1.24-2.96 1.81-1.24 2.96-1.24 2.11.41 2.88 1.22 1.16 1.81 1.16 2.98ZM945.9 487.53c0 2.3-.83 4.27-2.48 5.92-1.65 1.65-3.63 2.48-5.92 2.48h-12.6v-29.4h12.6c2.29 0 4.27.83 5.92 2.48 1.65 1.65 2.48 3.62 2.48 5.92v12.6Zm-4.2 0v-12.6c0-1.15-.41-2.13-1.24-2.96-.83-.83-1.81-1.24-2.96-1.24h-8.4v21h8.4c1.15 0 2.13-.41 2.96-1.24.83-.83 1.24-1.81 1.24-2.96ZM971.1 495.93h-21v-29.4h21v4.2h-16.8v8.4h12.6v4.2h-12.6v8.4h16.8v4.2ZM996.3 474.93l-10.5 21-10.5-21v-8.4h4.2v7.43l6.3 12.52 6.3-12.6v-7.35h4.2v8.4Z"/></g><path fill="#7b5ea7" d="M1250.72 444.77h250.48v70.37h-250.48z"/><g fill="#f9f4da"><path d="M1298.21 491.06h-15.87v-22.22h3.17v19.04h12.7v3.17ZM1317.25 491.06h-15.87v-22.22h15.87v3.17h-12.7v6.35h9.52v3.17h-9.52v6.35h12.7v3.17ZM1323.6 484.71v6.35h-3.17v-10.31l5.97-11.9h3.97l5.94 11.9v10.31h-3.17v-6.35h-9.52Zm4.76-12.7-4.76 9.52h9.52l-4.76-9.52ZM1352.16 491.06v-6.35c0-.87-.31-1.61-.94-2.24-.62-.62-1.37-.94-2.24-.94h-6.35v9.52h-3.17v-22.22h9.52c1.76 0 3.25.62 4.49 1.86 1.24 1.24 1.86 2.73 1.86 4.49 0 1.9-.9 3.49-2.7 4.76 1.8 1.27 2.7 2.86 2.7 4.76v6.35h-3.17Zm-9.52-12.7h6.35c.87 0 1.61-.31 2.24-.94.62-.62.94-1.37.94-2.24s-.31-1.61-.94-2.24c-.62-.62-1.37-.94-2.24-.94h-6.35v6.35ZM1374.38 491.06h-3.17v-7.33l-9.52-9.52v16.85h-3.17v-22.22h2.19l10.51 10.51v-10.51h3.17v22.22ZM1412.47 491.06h-3.17V474.4l-3.17 3.17v3.97h-3.17v-3.97l-3.17-3.17v16.66h-3.17v-22.22h2.38l5.55 5.55 5.55-5.55h2.38v22.22ZM1431.51 484.71c0 1.74-.62 3.23-1.87 4.47-1.25 1.25-2.74 1.87-4.48 1.87h-3.17c-1.74 0-3.23-.62-4.48-1.87-1.25-1.25-1.87-2.74-1.87-4.47v-9.52c0-1.73.62-3.23 1.87-4.47s2.74-1.87 4.48-1.87h3.17c1.73 0 3.23.62 4.48 1.87 1.25 1.25 1.87 2.74 1.87 4.47v9.52Zm-3.17 0v-9.52c0-.87-.31-1.61-.94-2.24-.62-.62-1.37-.94-2.24-.94h-3.17c-.87 0-1.61.31-2.24.94s-.94 1.37-.94 2.24v9.52c0 .87.31 1.61.94 2.24.62.62 1.37.94 2.24.94h3.17c.87 0 1.61-.31 2.24-.94s.94-1.37.94-2.24ZM1447.38 491.06v-6.35c0-.87-.31-1.61-.94-2.24-.62-.62-1.37-.94-2.24-.94h-6.35v9.52h-3.17v-22.22h9.52c1.76 0 3.25.62 4.49 1.86 1.24 1.24 1.86 2.73 1.86 4.49 0 1.9-.9 3.49-2.7 4.76 1.8 1.27 2.7 2.86 2.7 4.76v6.35h-3.17Zm-9.52-12.7h6.35c.87 0 1.61-.31 2.24-.94.62-.62.94-1.37.94-2.24s-.31-1.61-.94-2.24c-.62-.62-1.37-.94-2.24-.94h-6.35v6.35ZM1469.6 491.06h-15.87v-22.22h15.87v3.17h-12.7v6.35h9.52v3.17h-9.52v6.35h12.7v3.17Z"/></g><g stroke="#7b5ea7" stroke-linejoin="round" stroke-width="1.5"><g fill="#7b5ea7"><path d="M491.83 261.8v-32.41c0-3.34-1.13-6.14-3.39-8.4-2.26-2.26-4.81-3.39-7.66-3.39H455v44.2h-22.1V152.77h47.88c9.33 0 17.19 3.19 23.57 9.58 6.38 6.39 9.58 14 9.58 22.84 0 9.72-3.54 17.09-10.61 22.1 7.07 5.01 10.61 12.38 10.61 22.1v32.41h-22.1Zm-36.84-64.83h25.78c2.85 0 5.4-1.13 7.66-3.39 2.26-2.26 3.39-5.06 3.39-8.4s-1.13-6.14-3.39-8.4c-2.26-2.26-4.81-3.39-7.66-3.39h-25.78v23.57ZM602.34 261.8H521.3V152.77h81.04v20.63H543.4v23.57h44.2v20.63h-44.2v23.57h58.94v20.63ZM690.74 229.39c0 8.74-3.22 16.33-9.65 22.76-6.43 6.43-14.27 9.65-23.5 9.65h-47.88V152.77h47.88c9.23 0 17.07 3.22 23.5 9.65s9.65 14.02 9.65 22.76v44.2Zm-22.1 0v-44.2c0-3.34-1.13-6.14-3.39-8.4-2.26-2.26-4.81-3.39-7.66-3.39h-25.78v67.78h25.78c2.85 0 5.4-1.13 7.66-3.39 2.26-2.26 3.39-5.06 3.39-8.4ZM779.14 229.39c0 8.84-3.22 16.45-9.65 22.84-6.43 6.39-14.27 9.58-23.5 9.58h-14.73c-9.23 0-17.07-3.19-23.5-9.58-6.43-6.38-9.65-14-9.65-22.84v-76.62h22.1v76.62c0 3.34 1.13 6.14 3.39 8.4 2.26 2.26 4.81 3.39 7.66 3.39h14.73c2.85 0 5.4-1.13 7.66-3.39 2.26-2.26 3.39-5.06 3.39-8.4v-76.62h22.1v76.62ZM867.55 261.8h-22.1v-21.22l-18.42-18.42-18.42 18.42v21.22h-22.1v-28.88l25.64-25.64-25.64-25.64v-28.88h22.1v21.22l18.42 18.42 18.42-18.42v-21.22h22.1v28.88l-25.64 25.64 25.64 25.64v28.88ZM1064.25 261.8h-81.04V152.77h81.04v20.63h-58.94v23.57h44.2v20.63h-44.2v23.57h58.94v20.63ZM1152.65 185.78l-40.52 74.7-40.52-74.7v-33h22.1v28.44l18.42 36.54 18.42-36.83v-28.14h22.1v33ZM966.2 162.42c-6.43-6.43-14.27-9.65-23.5-9.65h-47.88v28.88l22.1 22.1V173.4h25.78c2.85 0 5.4 1.13 7.66 3.39 2.26 2.26 3.39 5.06 3.39 8.4v44.2c0 3.34-1.13 6.14-3.39 8.4-2.26 2.26-4.81 3.39-7.66 3.39h-25.78v-30.35l-22.1 22.1v28.88h47.88c9.23 0 17.07-3.22 23.5-9.65s9.65-14.02 9.65-22.76v-44.2c0-8.74-3.22-16.33-9.65-22.76Z"/><circle cx="881.18" cy="207.29" r="9.61"/></g><g fill="#f9f4da"><path d="M1227.94 261.8v-32.41c0-3.34-1.13-6.14-3.39-8.4-2.26-2.26-4.81-3.39-7.66-3.39h-25.78v44.2h-22.1V152.77h47.88c9.33 0 17.19 3.19 23.57 9.58 6.38 6.39 9.58 14 9.58 22.84 0 9.72-3.54 17.09-10.61 22.1 7.07 5.01 10.61 12.38 10.61 22.1v32.41h-22.1Zm-36.84-64.83h25.78c2.85 0 5.4-1.13 7.66-3.39 2.26-2.26 3.39-5.06 3.39-8.4s-1.13-6.14-3.39-8.4c-2.26-2.26-4.81-3.39-7.66-3.39h-25.78v23.57ZM1338.44 261.8h-81.04V152.77h81.04v20.63h-58.94v23.57h44.2v20.63h-44.2v23.57h58.94v20.63ZM1426.84 229.39c0 8.74-3.22 16.33-9.65 22.76-6.43 6.43-14.27 9.65-23.5 9.65h-47.88V152.77h47.88c9.23 0 17.07 3.22 23.5 9.65s9.65 14.02 9.65 22.76v44.2Zm-22.1 0v-44.2c0-3.34-1.13-6.14-3.39-8.4-2.26-2.26-4.81-3.39-7.66-3.39h-25.78v67.78h25.78c2.85 0 5.4-1.13 7.66-3.39 2.26-2.26 3.39-5.06 3.39-8.4ZM1515.25 229.39c0 8.84-3.22 16.45-9.65 22.84-6.43 6.39-14.27 9.58-23.5 9.58h-14.73c-9.23 0-17.07-3.19-23.5-9.58-6.43-6.38-9.65-14-9.65-22.84v-76.62h22.1v76.62c0 3.34 1.13 6.14 3.39 8.4 2.26 2.26 4.81 3.39 7.66 3.39h14.73c2.85 0 5.4-1.13 7.66-3.39 2.26-2.26 3.39-5.06 3.39-8.4v-76.62h22.1v76.62ZM1603.65 261.8h-22.1v-21.22l-18.42-18.42-18.42 18.42v21.22h-22.1v-28.88l25.64-25.64-25.64-25.64v-28.88h22.1v21.22l18.42 18.42 18.42-18.42v-21.22h22.1v28.88l-25.64 25.64 25.64 25.64v28.88Z"/></g><g fill="#f9f4da"><path d="M43.04 229.39c0 8.84-3.22 16.45-9.65 22.84-6.43 6.39-14.27 9.58-23.5 9.58H-4.84c-9.23 0-17.07-3.19-23.5-9.58-6.43-6.38-9.65-14-9.65-22.84v-76.62h22.1v76.62c0 3.34 1.13 6.14 3.39 8.4 2.26 2.26 4.81 3.39 7.66 3.39H9.89c2.85 0 5.4-1.13 7.66-3.39 2.26-2.26 3.39-5.06 3.39-8.4v-76.62h22.1v76.62ZM131.45 261.8h-22.1v-21.22l-18.42-18.42-18.42 18.42v21.22h-22.1v-28.88l25.64-25.64-25.64-25.64v-28.88h22.1v21.22l18.42 18.42 18.42-18.42v-21.22h22.1v28.88l-25.64 25.64 25.64 25.64v28.88ZM328.15 261.8h-81.04V152.77h81.04v20.63h-58.94v23.57h44.2v20.63h-44.2v23.57h58.94v20.63ZM416.55 185.78l-40.52 74.7-40.52-74.7v-33h22.1v28.44l18.42 36.54 18.42-36.83v-28.14h22.1v33ZM230.09 162.42c-6.43-6.43-14.27-9.65-23.5-9.65h-47.88v28.88l22.1 22.1V173.4h25.78c2.85 0 5.4 1.13 7.66 3.39 2.26 2.26 3.39 5.06 3.39 8.4v44.2c0 3.34-1.13 6.14-3.39 8.4s-4.81 3.39-7.66 3.39h-25.78v-30.35l-22.1 22.1v28.88h47.88c9.23 0 17.07-3.22 23.5-9.65s9.65-14.02 9.65-22.76v-44.2c0-8.74-3.22-16.33-9.65-22.76Z"/><circle cx="145.08" cy="207.29" r="9.61"/></g><g fill="#f9f4da"><path d="M491.83 134.65v-32.41c0-3.34-1.13-6.14-3.39-8.4-2.26-2.26-4.81-3.39-7.66-3.39H455v44.2h-22.1V25.62h47.88c9.33 0 17.19 3.19 23.57 9.58 6.38 6.39 9.58 14 9.58 22.84 0 9.72-3.54 17.09-10.61 22.1 7.07 5.01 10.61 12.38 10.61 22.1v32.41h-22.1Zm-36.84-64.83h25.78c2.85 0 5.4-1.13 7.66-3.39 2.26-2.26 3.39-5.06 3.39-8.4s-1.13-6.14-3.39-8.4c-2.26-2.26-4.81-3.39-7.66-3.39h-25.78v23.57ZM602.34 134.65H521.3V25.62h81.04v20.63H543.4v23.57h44.2v20.63h-44.2v23.57h58.94v20.63ZM690.74 102.24c0 8.74-3.22 16.33-9.65 22.76-6.43 6.43-14.27 9.65-23.5 9.65h-47.88V25.62h47.88c9.23 0 17.07 3.22 23.5 9.65s9.65 14.02 9.65 22.76v44.2Zm-22.1 0v-44.2c0-3.34-1.13-6.14-3.39-8.4-2.26-2.26-4.81-3.39-7.66-3.39h-25.78v67.78h25.78c2.85 0 5.4-1.13 7.66-3.39 2.26-2.26 3.39-5.06 3.39-8.4ZM779.14 102.24c0 8.84-3.22 16.45-9.65 22.84-6.43 6.39-14.27 9.58-23.5 9.58h-14.73c-9.23 0-17.07-3.19-23.5-9.58-6.43-6.38-9.65-14-9.65-22.84V25.62h22.1v76.62c0 3.34 1.13 6.14 3.39 8.4 2.26 2.26 4.81 3.39 7.66 3.39h14.73c2.85 0 5.4-1.13 7.66-3.39 2.26-2.26 3.39-5.06 3.39-8.4V25.62h22.1v76.62ZM867.55 134.65h-22.1v-21.22l-18.42-18.42-18.42 18.42v21.22h-22.1v-28.88l25.64-25.64-25.64-25.64V25.62h22.1v21.22l18.42 18.42 18.42-18.42V25.62h22.1V54.5l-25.64 25.64 25.64 25.64v28.88ZM1064.25 134.65h-81.04V25.62h81.04v20.63h-58.94v23.57h44.2v20.63h-44.2v23.57h58.94v20.63ZM1152.65 58.63l-40.52 74.7-40.52-74.7V25.62h22.1v28.44l18.42 36.54 18.42-36.83V25.62h22.1v33.01ZM966.2 35.27c-6.43-6.43-14.27-9.65-23.5-9.65h-47.88V54.5l22.1 22.1V46.25h25.78c2.85 0 5.4 1.13 7.66 3.39 2.26 2.26 3.39 5.06 3.39 8.4v44.2c0 3.34-1.13 6.14-3.39 8.4-2.26 2.26-4.81 3.39-7.66 3.39h-25.78V83.68l-22.1 22.1v28.88h47.88c9.23 0 17.07-3.22 23.5-9.65s9.65-14.02 9.65-22.76V58.04c0-8.74-3.22-16.33-9.65-22.76Z"/><circle cx="881.18" cy="80.14" r="9.61"/></g><g fill="#f9f4da"><path d="M1227.94 134.65v-32.41c0-3.34-1.13-6.14-3.39-8.4-2.26-2.26-4.81-3.39-7.66-3.39h-25.78v44.2h-22.1V25.62h47.88c9.33 0 17.19 3.19 23.57 9.58 6.38 6.39 9.58 14 9.58 22.84 0 9.72-3.54 17.09-10.61 22.1 7.07 5.01 10.61 12.38 10.61 22.1v32.41h-22.1Zm-36.84-64.83h25.78c2.85 0 5.4-1.13 7.66-3.39 2.26-2.26 3.39-5.06 3.39-8.4s-1.13-6.14-3.39-8.4c-2.26-2.26-4.81-3.39-7.66-3.39h-25.78v23.57ZM1338.44 134.65h-81.04V25.62h81.04v20.63h-58.94v23.57h44.2v20.63h-44.2v23.57h58.94v20.63ZM1426.84 102.24c0 8.74-3.22 16.33-9.65 22.76-6.43 6.43-14.27 9.65-23.5 9.65h-47.88V25.62h47.88c9.23 0 17.07 3.22 23.5 9.65s9.65 14.02 9.65 22.76v44.2Zm-22.1 0v-44.2c0-3.34-1.13-6.14-3.39-8.4-2.26-2.26-4.81-3.39-7.66-3.39h-25.78v67.78h25.78c2.85 0 5.4-1.13 7.66-3.39 2.26-2.26 3.39-5.06 3.39-8.4ZM1515.25 102.24c0 8.84-3.22 16.45-9.65 22.84-6.43 6.39-14.27 9.58-23.5 9.58h-14.73c-9.23 0-17.07-3.19-23.5-9.58-6.43-6.38-9.65-14-9.65-22.84V25.62h22.1v76.62c0 3.34 1.13 6.14 3.39 8.4 2.26 2.26 4.81 3.39 7.66 3.39h14.73c2.85 0 5.4-1.13 7.66-3.39 2.26-2.26 3.39-5.06 3.39-8.4V25.62h22.1v76.62ZM1603.65 134.65h-22.1v-21.22l-18.42-18.42-18.42 18.42v21.22h-22.1v-28.88l25.64-25.64-25.64-25.64V25.62h22.1v21.22l18.42 18.42 18.42-18.42V25.62h22.1V54.5l-25.64 25.64 25.64 25.64v28.88Z"/></g><g fill="#f9f4da"><path d="M43.04 102.24c0 8.84-3.22 16.45-9.65 22.84-6.43 6.39-14.27 9.58-23.5 9.58H-4.84c-9.23 0-17.07-3.19-23.5-9.58-6.43-6.38-9.65-14-9.65-22.84V25.62h22.1v76.62c0 3.34 1.13 6.14 3.39 8.4 2.26 2.26 4.81 3.39 7.66 3.39H9.89c2.85 0 5.4-1.13 7.66-3.39 2.26-2.26 3.39-5.06 3.39-8.4V25.62h22.1v76.62ZM131.45 134.65h-22.1v-21.22L90.93 95.01l-18.42 18.42v21.22h-22.1v-28.88l25.64-25.64-25.64-25.64V25.62h22.1v21.22l18.42 18.42 18.42-18.42V25.62h22.1V54.5l-25.64 25.64 25.64 25.64v28.88ZM328.15 134.65h-81.04V25.62h81.04v20.63h-58.94v23.57h44.2v20.63h-44.2v23.57h58.94v20.63ZM416.55 58.63l-40.52 74.7-40.52-74.7V25.62h22.1v28.44l18.42 36.54 18.42-36.83V25.62h22.1v33.01ZM230.09 35.27c-6.43-6.43-14.27-9.65-23.5-9.65h-47.88V54.5l22.1 22.1V46.25h25.78c2.85 0 5.4 1.13 7.66 3.39 2.26 2.26 3.39 5.06 3.39 8.4v44.2c0 3.34-1.13 6.14-3.39 8.4-2.26 2.26-4.81 3.39-7.66 3.39h-25.78V83.68l-22.1 22.1v28.88h47.88c9.23 0 17.07-3.22 23.5-9.65s9.65-14.02 9.65-22.76V58.04c0-8.74-3.22-16.33-9.65-22.76Z"/><circle cx="145.08" cy="80.14" r="9.61"/></g><g fill="#f9f4da"><path d="M491.83 388.95v-32.41c0-3.34-1.13-6.14-3.39-8.4-2.26-2.26-4.81-3.39-7.66-3.39H455v44.2h-22.1V279.92h47.88c9.33 0 17.19 3.19 23.57 9.58 6.38 6.39 9.58 14 9.58 22.84 0 9.72-3.54 17.09-10.61 22.1 7.07 5.01 10.61 12.38 10.61 22.1v32.41h-22.1Zm-36.84-64.83h25.78c2.85 0 5.4-1.13 7.66-3.39 2.26-2.26 3.39-5.06 3.39-8.4s-1.13-6.14-3.39-8.4c-2.26-2.26-4.81-3.39-7.66-3.39h-25.78v23.57ZM602.34 388.95H521.3V279.92h81.04v20.63H543.4v23.57h44.2v20.63h-44.2v23.57h58.94v20.63ZM690.74 356.54c0 8.74-3.22 16.33-9.65 22.76-6.43 6.43-14.27 9.65-23.5 9.65h-47.88V279.92h47.88c9.23 0 17.07 3.22 23.5 9.65s9.65 14.02 9.65 22.76v44.2Zm-22.1 0v-44.2c0-3.34-1.13-6.14-3.39-8.4-2.26-2.26-4.81-3.39-7.66-3.39h-25.78v67.78h25.78c2.85 0 5.4-1.13 7.66-3.39 2.26-2.26 3.39-5.06 3.39-8.4ZM779.14 356.54c0 8.84-3.22 16.45-9.65 22.84-6.43 6.39-14.27 9.58-23.5 9.58h-14.73c-9.23 0-17.07-3.19-23.5-9.58-6.43-6.38-9.65-14-9.65-22.84v-76.62h22.1v76.62c0 3.34 1.13 6.14 3.39 8.4 2.26 2.26 4.81 3.39 7.66 3.39h14.73c2.85 0 5.4-1.13 7.66-3.39 2.26-2.26 3.39-5.06 3.39-8.4v-76.62h22.1v76.62ZM867.55 388.95h-22.1v-21.22l-18.42-18.42-18.42 18.42v21.22h-22.1v-28.88l25.64-25.64-25.64-25.64v-28.88h22.1v21.22l18.42 18.42 18.42-18.42v-21.22h22.1v28.88l-25.64 25.64 25.64 25.64v28.88ZM1064.25 388.95h-81.04V279.92h81.04v20.63h-58.94v23.57h44.2v20.63h-44.2v23.57h58.94v20.63ZM1152.65 312.92l-40.52 74.7-40.52-74.7v-33h22.1v28.44l18.42 36.54 18.42-36.83v-28.14h22.1v33ZM966.2 289.57c-6.43-6.43-14.27-9.65-23.5-9.65h-47.88v28.88l22.1 22.1v-30.35h25.78c2.85 0 5.4 1.13 7.66 3.39 2.26 2.26 3.39 5.06 3.39 8.4v44.2c0 3.34-1.13 6.14-3.39 8.4-2.26 2.26-4.81 3.39-7.66 3.39h-25.78v-30.35l-22.1 22.1v28.88h47.88c9.23 0 17.07-3.22 23.5-9.65s9.65-14.02 9.65-22.76v-44.2c0-8.74-3.22-16.33-9.65-22.76Z"/><circle cx="881.18" cy="334.43" r="9.61"/></g><g fill="#f9f4da"><path d="M1227.94 388.95v-32.41c0-3.34-1.13-6.14-3.39-8.4-2.26-2.26-4.81-3.39-7.66-3.39h-25.78v44.2h-22.1V279.92h47.88c9.33 0 17.19 3.19 23.57 9.58 6.38 6.39 9.58 14 9.58 22.84 0 9.72-3.54 17.09-10.61 22.1 7.07 5.01 10.61 12.38 10.61 22.1v32.41h-22.1Zm-36.84-64.83h25.78c2.85 0 5.4-1.13 7.66-3.39 2.26-2.26 3.39-5.06 3.39-8.4s-1.13-6.14-3.39-8.4c-2.26-2.26-4.81-3.39-7.66-3.39h-25.78v23.57ZM1338.44 388.95h-81.04V279.92h81.04v20.63h-58.94v23.57h44.2v20.63h-44.2v23.57h58.94v20.63ZM1426.84 356.54c0 8.74-3.22 16.33-9.65 22.76-6.43 6.43-14.27 9.65-23.5 9.65h-47.88V279.92h47.88c9.23 0 17.07 3.22 23.5 9.65s9.65 14.02 9.65 22.76v44.2Zm-22.1 0v-44.2c0-3.34-1.13-6.14-3.39-8.4-2.26-2.26-4.81-3.39-7.66-3.39h-25.78v67.78h25.78c2.85 0 5.4-1.13 7.66-3.39 2.26-2.26 3.39-5.06 3.39-8.4ZM1515.25 356.54c0 8.84-3.22 16.45-9.65 22.84-6.43 6.39-14.27 9.58-23.5 9.58h-14.73c-9.23 0-17.07-3.19-23.5-9.58-6.43-6.38-9.65-14-9.65-22.84v-76.62h22.1v76.62c0 3.34 1.13 6.14 3.39 8.4 2.26 2.26 4.81 3.39 7.66 3.39h14.73c2.85 0 5.4-1.13 7.66-3.39 2.26-2.26 3.39-5.06 3.39-8.4v-76.62h22.1v76.62ZM1603.65 388.95h-22.1v-21.22l-18.42-18.42-18.42 18.42v21.22h-22.1v-28.88l25.64-25.64-25.64-25.64v-28.88h22.1v21.22l18.42 18.42 18.42-18.42v-21.22h22.1v28.88l-25.64 25.64 25.64 25.64v28.88Z"/></g><g fill="#f9f4da"><path d="M43.04 356.54c0 8.84-3.22 16.45-9.65 22.84-6.43 6.39-14.27 9.58-23.5 9.58H-4.84c-9.23 0-17.07-3.19-23.5-9.58-6.43-6.38-9.65-14-9.65-22.84v-76.62h22.1v76.62c0 3.34 1.13 6.14 3.39 8.4 2.26 2.26 4.81 3.39 7.66 3.39H9.89c2.85 0 5.4-1.13 7.66-3.39 2.26-2.26 3.39-5.06 3.39-8.4v-76.62h22.1v76.62ZM131.45 388.95h-22.1v-21.22l-18.42-18.42-18.42 18.42v21.22h-22.1v-28.88l25.64-25.64-25.64-25.64v-28.88h22.1v21.22l18.42 18.42 18.42-18.42v-21.22h22.1v28.88l-25.64 25.64 25.64 25.64v28.88ZM328.15 388.95h-81.04V279.92h81.04v20.63h-58.94v23.57h44.2v20.63h-44.2v23.57h58.94v20.63ZM416.55 312.92l-40.52 74.7-40.52-74.7v-33h22.1v28.44l18.42 36.54 18.42-36.83v-28.14h22.1v33ZM230.09 289.57c-6.43-6.43-14.27-9.65-23.5-9.65h-47.88v28.88l22.1 22.1v-30.35h25.78c2.85 0 5.4 1.13 7.66 3.39 2.26 2.26 3.39 5.06 3.39 8.4v44.2c0 3.34-1.13 6.14-3.39 8.4s-4.81 3.39-7.66 3.39h-25.78v-30.35l-22.1 22.1v28.88h47.88c9.23 0 17.07-3.22 23.5-9.65s9.65-14.02 9.65-22.76v-44.2c0-8.74-3.22-16.33-9.65-22.76Z"/><circle cx="145.08" cy="334.43" r="9.61"/></g></g></svg>