<svg xmlns="http://www.w3.org/2000/svg" xmlns:xlink="http://www.w3.org/1999/xlink" version="1.1" x="0px" y="0px" viewBox="0 0 66 66" style="enable-background:new 0 0 66 66;" xml:space="preserve"><g><path d="M64,32h-2.9C60.6,17.3,48.7,5.4,34,4.9V2c0-0.6-0.4-1-1-1s-1,0.4-1,1v2.9C17.3,5.4,5.4,17.3,4.9,32H2   c-0.6,0-1,0.4-1,1s0.4,1,1,1h2.9C5.4,48.7,17.3,60.6,32,61.1V64c0,0.6,0.4,1,1,1s1-0.4,1-1v-2.9C48.7,60.6,60.6,48.7,61.1,34H64   c0.6,0,1-0.4,1-1S64.6,32,64,32z M34,59.1v-2.9c0-0.6-0.4-1-1-1s-1,0.4-1,1v2.9C18.4,58.6,7.4,47.6,6.9,34h2.9c0.6,0,1-0.4,1-1   s-0.4-1-1-1H6.9C7.4,18.4,18.4,7.4,32,6.9v2.9c0,0.6,0.4,1,1,1s1-0.4,1-1V6.9C47.6,7.4,58.6,18.4,59.1,32h-2.9c-0.6,0-1,0.4-1,1   s0.4,1,1,1h2.9C58.6,47.6,47.6,58.6,34,59.1z"/><path d="M26.9,17c1.3,0,2.6,0.6,3.5,1.6c-2.2,1-3.5,3.3-3.6,5.6c-0.2,2.9,1.9,5.4,6.1,5.4c4.5,0,6.2-2.2,6.2-5   c0-2.6-1.5-5-3.6-6c0.9-1,2.2-1.5,3.5-1.5c0.5,0,1-0.5,1-1c0-0.6-0.5-1-1-1c-2.2,0-4.3,1.1-5.6,3c-0.3,0-0.6,0-0.9,0   c-1.3-1.9-3.4-3-5.6-3c-0.6,0-1,0.4-1,1C25.9,16.6,26.4,17,26.9,17z"/><path d="M47.5,39.8c0.3,0.5,0.9,0.6,1.4,0.3c0.5-0.3,0.6-0.9,0.3-1.4L47,35c-0.2-0.3-0.5-0.5-0.9-0.5h-2.7   c-0.5-2.4-1.7-4.6-3.2-6.3c-1.5,2.5-4.3,3.3-7.2,3.3c-3,0-5.4-0.7-7-3.4c-1.6,1.7-2.8,3.9-3.3,6.4h-2.7c-0.3,0-0.7,0.2-0.8,0.5   l-2.3,3.8c-0.3,0.5-0.1,1.1,0.3,1.4c0.5,0.3,1.1,0.1,1.4-0.3l2-3.3h1.8c0,0.5-0.1,1-0.1,1.4c0,1.5,0.2,3,0.6,4.3h-2.9   c-0.3,0-0.7,0.2-0.8,0.5l-2.3,3.8c-0.3,0.5-0.1,1.1,0.3,1.4c0.5,0.3,1.1,0.1,1.4-0.3l2-3.3h3.1c1.9,4,5.4,6.7,9.5,6.7   s7.6-2.7,9.5-6.7h3.1l2,3.3c0.3,0.5,0.9,0.6,1.4,0.3c0.5-0.3,0.6-0.9,0.3-1.4L47,42.8c-0.2-0.3-0.5-0.5-0.9-0.5h-2.9   c0.4-1.4,0.6-2.8,0.6-4.3c0-0.5,0-1-0.1-1.4h1.8L47.5,39.8z"/></g></svg>